<?xml version="1.0" standalone="no"?>
<!DOCTYPE svg PUBLIC "-//W3C//DTD SVG 20010904//EN"
 "http://www.w3.org/TR/2001/REC-SVG-20010904/DTD/svg10.dtd">
<svg version="1.0" xmlns="http://www.w3.org/2000/svg"
 width="1280.000000pt" height="821.000000pt" viewBox="0 0 1280.000000 821.000000"
 preserveAspectRatio="xMidYMid meet">
<metadata>
Created by potrace 1.15, written by Peter Selinger 2001-2017
</metadata>
<g transform="translate(0.000000,821.000000) scale(0.100000,-0.100000)"
fill="#000000" stroke="none">
<path d="M8194 8195 c-31 -24 -79 -33 -289 -55 -110 -11 -239 -27 -287 -35
-47 -9 -154 -20 -236 -25 -163 -10 -186 -16 -339 -94 -49 -24 -109 -49 -133
-55 -25 -7 -65 -20 -90 -31 -25 -11 -83 -29 -129 -40 -139 -35 -465 -168 -528
-216 -17 -13 -39 -24 -48 -24 -8 0 -18 -7 -21 -15 -4 -8 -17 -15 -31 -15 -14
0 -36 -9 -50 -20 -14 -11 -36 -20 -48 -20 -13 0 -49 -14 -80 -30 -32 -17 -91
-42 -132 -55 -41 -14 -162 -68 -271 -121 -350 -170 -442 -197 -725 -215 -206
-13 -214 -13 -250 -4 -23 6 -32 2 -60 -29 -19 -20 -39 -36 -45 -36 -17 0 -15
-26 3 -54 9 -13 31 -97 50 -186 19 -89 39 -168 46 -176 6 -8 21 -11 33 -8 15
3 33 -6 63 -34 46 -44 167 -109 258 -140 108 -37 183 -46 375 -45 152 0 203 4
284 21 54 12 107 22 117 22 27 0 24 -27 -16 -154 -19 -60 -35 -120 -35 -132 0
-13 -7 -41 -15 -61 -21 -54 -72 -363 -86 -526 -10 -110 -10 -153 0 -216 13
-76 12 -80 -8 -100 -12 -12 -21 -29 -21 -39 0 -46 -14 -50 -260 -72 -294 -26
-505 -54 -607 -82 -43 -11 -104 -24 -137 -27 -39 -5 -63 -13 -72 -25 -8 -11
-20 -16 -29 -12 -71 27 -691 -135 -997 -260 -59 -24 -117 -44 -128 -44 -12 0
-52 -13 -91 -30 -38 -16 -129 -46 -202 -66 -187 -51 -335 -105 -462 -168 -60
-30 -173 -85 -249 -121 -77 -36 -199 -99 -270 -139 -72 -41 -154 -85 -182 -99
-27 -14 -56 -33 -64 -42 -8 -9 -46 -33 -84 -52 -98 -49 -234 -140 -247 -166
-7 -12 -31 -43 -54 -68 -100 -108 -120 -188 -112 -458 l6 -204 -100 -126
c-131 -164 -180 -239 -218 -332 -36 -86 -50 -102 -118 -134 -70 -32 -186 -128
-214 -177 -24 -42 -24 -46 -21 -250 2 -182 1 -208 -13 -208 -8 0 -23 -9 -32
-20 -10 -11 -23 -20 -30 -20 -7 0 -13 -6 -13 -13 0 -7 -25 -37 -55 -67 -42
-42 -58 -66 -71 -109 -17 -60 -55 -140 -86 -182 -18 -24 -19 -28 -4 -64 21
-50 20 -97 -3 -127 -40 -50 -101 -210 -101 -264 0 -69 -18 -161 -40 -204 -10
-19 -34 -51 -54 -69 l-36 -35 0 -348 0 -348 758 0 c418 0 821 3 896 7 l138 6
-99 51 c-54 28 -109 59 -123 68 l-24 18 26 0 c14 0 65 -11 113 -25 83 -24 89
-25 106 -9 26 24 24 38 -11 67 -16 14 -30 28 -30 31 0 3 25 6 55 6 30 0 55 2
55 5 0 3 -10 19 -22 35 -12 16 -18 33 -15 37 4 3 31 -1 61 -10 67 -21 66 -22
66 7 l0 24 81 -34 c86 -36 87 -35 30 29 -14 15 -23 27 -20 27 2 0 33 -9 67
-20 80 -25 109 -25 124 0 7 11 19 20 26 20 16 0 182 -159 182 -174 0 -6 26
-42 56 -81 69 -85 58 -83 380 -84 l231 -1 48 73 c57 85 148 257 141 265 -3 2
-31 -15 -61 -39 -169 -133 -195 -149 -182 -115 6 16 -32 56 -53 56 -8 0 -49
-37 -91 -81 -46 -50 -81 -79 -88 -75 -8 5 2 22 28 52 21 24 46 59 54 76 14 29
14 35 2 48 -13 13 -19 12 -44 -3 -22 -13 -41 -15 -75 -11 -26 4 -48 10 -51 14
-5 9 18 74 33 93 7 9 26 20 42 25 23 9 31 7 45 -8 16 -18 19 -17 67 31 57 57
261 195 357 241 85 41 99 53 112 100 19 73 -12 100 -70 59 -15 -11 -40 -23
-57 -27 -16 -4 -45 -15 -64 -24 -48 -24 -110 -34 -110 -19 0 6 14 27 31 47 18
20 27 38 21 40 -20 6 -164 -82 -178 -110 -17 -32 -49 -43 -102 -35 -44 7 -83
47 -75 77 7 26 17 25 54 -2 29 -22 31 -22 40 -5 6 10 34 28 62 41 58 26 80 47
75 73 -3 19 -68 67 -77 57 -3 -3 2 -10 11 -15 24 -13 15 -30 -43 -74 -69 -52
-81 -36 -64 88 8 64 1 70 -38 30 -19 -21 -27 -40 -29 -78 -3 -49 -4 -51 -53
-77 -65 -36 -167 -68 -215 -68 -51 0 -70 -8 -80 -35 -6 -15 -25 -29 -57 -40
-26 -9 -83 -30 -125 -47 -43 -17 -111 -34 -154 -39 -42 -4 -84 -11 -95 -14
-30 -10 -23 2 18 30 21 14 50 25 64 25 15 0 29 7 32 14 8 20 101 47 137 39 38
-7 99 23 175 87 36 30 73 52 94 56 44 8 61 21 61 45 0 23 -42 26 -60 5 -6 -8
-17 -12 -25 -10 -7 3 -46 -9 -85 -26 -40 -17 -88 -34 -108 -37 -21 -3 -42 -10
-49 -15 -6 -5 -58 -20 -115 -33 -57 -12 -128 -32 -158 -44 -66 -25 -70 -25
-70 -6 0 21 -11 18 -37 -9 -13 -13 -37 -26 -54 -30 -48 -9 -149 -7 -149 3 0 5
21 17 47 27 27 9 100 38 163 65 136 56 304 115 486 169 73 22 165 56 205 75
40 19 82 35 92 35 10 0 40 11 67 25 27 14 60 25 72 25 13 0 46 11 74 24 37 17
55 21 63 13 7 -7 38 -1 108 22 145 48 167 60 171 96 4 33 51 88 95 112 40 20
41 13 6 -30 -21 -26 -26 -37 -16 -37 15 0 87 76 87 92 0 4 9 8 21 8 14 0 24
-10 32 -30 16 -43 31 -38 21 8 -13 57 -11 145 3 149 8 3 13 -15 15 -59 3 -59
5 -63 29 -66 32 -4 45 21 61 120 12 65 11 71 -7 84 -10 8 -37 14 -60 14 -34 0
-45 -5 -63 -30 -26 -35 -61 -40 -69 -10 -3 11 -11 20 -17 20 -33 0 -127 -35
-171 -65 -27 -18 -66 -36 -85 -39 -31 -6 -210 -100 -268 -141 -12 -9 -34 -34
-47 -56 l-25 -39 -35 17 c-29 14 -40 15 -77 4 -24 -7 -64 -26 -90 -43 -32 -20
-69 -32 -114 -39 -37 -5 -78 -12 -93 -16 -59 -15 -257 -95 -290 -117 -50 -34
-73 -42 -261 -87 -238 -57 -242 -58 -255 -75 -6 -9 -62 -29 -125 -46 -156 -41
-160 -42 -160 -31 0 12 84 50 130 59 19 4 53 19 75 33 22 15 54 33 70 40 27
12 28 14 10 21 -23 9 -115 -3 -200 -25 -33 -8 -71 -15 -85 -14 l-25 0 23 11
c31 15 22 32 -19 36 -19 2 -37 7 -41 10 -8 8 307 97 447 128 44 10 72 19 63
21 -9 2 -51 -3 -93 -12 -72 -15 -98 -14 -82 1 3 4 41 19 84 34 43 16 101 36
128 46 120 43 311 116 344 133 20 10 83 28 141 41 58 12 143 37 190 55 47 18
101 38 120 43 19 6 61 20 92 31 61 22 118 28 118 11 0 -36 118 15 334 144 212
127 209 124 182 161 -13 18 -15 18 -48 2 -20 -9 -85 -28 -144 -43 -150 -35
-234 -60 -336 -100 -48 -19 -97 -34 -109 -34 -38 0 -16 34 41 64 82 43 150 87
150 97 0 10 -77 12 -132 3 -37 -6 -54 -24 -23 -24 27 0 16 -19 -25 -45 -42
-26 -44 -29 -54 -77 -5 -22 -20 -35 -66 -58 -34 -17 -60 -37 -60 -45 0 -24
-28 -29 -49 -11 -11 10 -44 20 -75 23 l-56 6 0 77 c0 111 7 140 35 140 12 0
48 15 79 34 31 19 73 37 94 41 20 4 51 15 68 26 17 10 41 19 52 19 44 0 167
70 175 99 3 13 29 27 84 45 57 19 89 36 113 61 22 23 47 38 71 41 20 3 42 10
49 14 15 9 5 30 -16 30 -8 0 -14 4 -14 9 0 13 64 35 204 71 66 16 140 42 165
57 25 14 69 39 97 54 75 42 87 60 92 135 2 35 1 64 -2 64 -4 0 -49 -27 -100
-60 -177 -112 -451 -246 -751 -368 -180 -72 -437 -158 -520 -173 -33 -6 -69
-13 -80 -15 -11 -2 -44 -21 -74 -44 -29 -22 -63 -40 -75 -40 -12 0 -46 -16
-76 -35 -30 -19 -66 -35 -80 -35 -14 0 -42 -9 -63 -20 -20 -11 -45 -20 -54
-20 -10 0 -38 -14 -63 -30 -35 -23 -56 -30 -96 -30 -39 0 -69 -9 -132 -41 -84
-42 -114 -46 -120 -17 -2 12 8 22 30 32 l33 14 -47 1 c-29 1 -48 6 -48 13 0 6
18 28 40 49 47 45 50 59 12 59 -20 0 -35 -9 -50 -29 -19 -26 -120 -86 -129
-77 -8 8 70 101 104 124 52 35 109 52 156 46 37 -5 49 -1 104 35 48 31 64 48
71 73 l8 33 100 6 c81 4 107 10 137 28 21 13 65 29 100 37 34 8 121 40 192 71
103 45 145 57 205 63 57 5 97 17 170 50 52 23 131 57 176 76 45 18 132 58 195
90 63 31 161 77 219 101 155 64 289 150 402 256 l97 92 -9 85 c-25 239 -17
230 -157 158 -72 -37 -127 -58 -163 -63 -66 -9 -95 -26 -59 -36 l24 -6 -30
-17 c-16 -9 -73 -42 -125 -72 -52 -30 -122 -68 -155 -84 -33 -15 -69 -38 -79
-49 -11 -12 -39 -30 -64 -41 -24 -11 -81 -42 -127 -70 -45 -27 -87 -50 -91
-50 -5 0 -87 -38 -184 -84 -196 -94 -324 -142 -402 -151 -76 -10 -115 -23
-188 -66 -89 -52 -233 -99 -304 -99 -64 0 -95 -13 -225 -98 -143 -92 -249
-156 -401 -241 -80 -45 -157 -94 -172 -109 -28 -25 -37 -52 -19 -52 11 0 37
-67 51 -133 11 -50 11 -52 -55 -222 -33 -87 -36 -90 -107 -126 -32 -16 -70
-43 -85 -59 -14 -17 -32 -30 -40 -30 -16 0 -100 -75 -115 -103 -10 -19 -8 -20
31 -13 76 12 495 138 621 186 136 52 403 140 425 140 8 0 77 32 155 72 77 39
143 68 146 65 15 -15 -10 -35 -97 -81 -52 -27 -131 -71 -176 -98 -45 -27 -106
-57 -135 -67 -65 -23 -166 -68 -453 -201 -254 -118 -718 -320 -734 -320 -24 0
1 67 49 134 18 25 37 69 45 107 8 35 32 106 52 157 32 79 35 96 25 113 -8 13
-13 57 -13 115 0 104 16 150 58 169 24 10 33 33 33 84 0 49 28 86 131 176 l91
80 -5 65 c-4 36 -9 124 -13 195 -6 126 -5 131 17 164 13 19 50 48 81 65 113
61 248 168 248 195 0 30 99 216 150 281 28 36 80 105 115 155 59 81 65 95 66
140 0 27 4 149 8 270 6 201 9 224 29 263 13 23 26 40 31 38 4 -3 25 13 46 34
22 22 46 40 55 40 43 1 289 153 424 263 43 36 115 86 159 113 175 103 530 253
927 389 124 43 304 108 400 145 218 84 370 133 525 170 215 51 705 150 940
191 240 41 548 69 618 55 37 -7 38 -8 24 -30 -9 -13 -17 -38 -19 -57 -3 -29
-10 -38 -55 -64 -29 -16 -52 -32 -53 -35 0 -3 18 -4 40 -2 35 4 40 2 40 -17 0
-37 -38 -61 -248 -163 -112 -54 -202 -101 -200 -104 6 -5 14 -2 267 100 103
41 168 63 174 57 5 -5 8 -37 5 -70 -3 -45 -9 -65 -24 -76 -35 -28 -532 -273
-596 -294 -91 -30 -235 -44 -460 -45 -186 -1 -198 0 -225 21 -17 11 -79 47
-139 78 -60 31 -127 67 -149 80 -52 32 -232 90 -340 110 -91 17 -153 11 -237
-22 -44 -18 -48 -28 -13 -37 27 -7 33 -34 13 -54 -18 -18 6 -39 63 -52 67 -16
99 -45 152 -138 117 -203 167 -331 167 -425 0 -34 17 -134 39 -231 61 -264 80
-493 82 -951 0 -276 10 -377 23 -235 4 41 11 192 16 335 8 219 12 268 29 310
21 55 45 69 55 33 17 -64 0 -694 -20 -760 -7 -24 -24 -23 -24 2 0 11 -4 20 -9
20 -10 0 -18 -62 -31 -246 -6 -90 -15 -147 -30 -183 -23 -59 -28 -143 -7 -139
8 2 13 -21 17 -80 5 -79 7 -85 38 -110 24 -21 32 -35 32 -59 0 -41 -22 -44
-39 -6 -8 17 -15 23 -22 16 -9 -9 -51 -383 -43 -383 9 0 50 84 79 161 19 51
41 96 49 101 7 4 35 39 62 78 71 104 81 94 38 -40 -14 -45 -23 -88 -20 -96 11
-29 34 -12 71 50 38 66 120 166 135 166 5 0 0 -25 -10 -55 -20 -58 -15 -68 15
-35 26 29 47 26 45 -7 -3 -43 -2 -44 36 -28 100 41 113 -2 28 -91 -31 -33
-119 -137 -197 -233 -153 -189 -237 -284 -244 -277 -8 8 48 109 110 199 64 93
67 117 11 97 -22 -8 -43 -35 -87 -108 -69 -115 -174 -262 -188 -262 -6 0 -7
10 -4 23 9 28 144 289 185 355 34 56 36 62 16 62 -17 0 -54 -57 -146 -230 -71
-132 -106 -189 -161 -260 -56 -74 -42 -106 16 -35 21 25 41 45 45 45 8 0 34
-74 64 -180 8 -30 21 -63 28 -73 12 -16 15 -14 38 23 14 23 36 43 48 47 13 3
58 -1 100 -9 43 -9 78 -14 80 -13 1 1 -57 53 -129 115 -150 129 -151 130 -14
133 66 2 76 -1 165 -47 75 -39 111 -66 171 -128 42 -43 79 -78 82 -78 2 0 7 9
10 20 3 10 21 27 41 36 l35 17 60 -41 c32 -23 70 -42 83 -42 43 0 135 -70 176
-135 53 -83 377 -443 389 -432 3 4 -28 48 -69 99 -86 106 -139 187 -175 265
-38 82 -18 106 47 58 19 -14 41 -25 51 -25 10 0 19 -11 22 -27 12 -59 323
-373 369 -373 19 0 3 22 -82 116 -101 110 -150 178 -150 207 0 17 5 19 48 12
26 -3 54 -12 63 -18 9 -7 79 -81 155 -165 l138 -153 810 3 c446 2 819 7 828
12 10 4 14 14 11 24 -5 12 -2 14 13 7 37 -15 63 -17 97 -6 37 13 67 6 67 -14
0 -20 91 -28 239 -23 100 4 132 8 154 23 27 17 28 17 48 -4 25 -27 78 -27 176
-1 40 10 101 22 135 25 l63 6 -30 -25 -30 -26 28 0 c48 0 95 27 238 135 76 57
161 116 188 130 55 27 79 52 40 40 -34 -11 -154 -71 -222 -112 -32 -19 -60
-33 -63 -30 -6 6 47 47 176 135 114 78 188 139 155 127 -11 -4 -31 -10 -45
-13 l-25 -5 20 23 c11 12 54 48 95 80 84 64 100 81 104 107 2 13 11 17 29 15
18 -2 29 4 37 18 9 17 18 20 39 15 24 -5 37 5 122 92 110 114 231 249 279 313
19 25 54 67 78 93 24 27 42 51 39 53 -3 3 -60 -17 -126 -45 -320 -135 -532
-214 -645 -241 -144 -35 -277 -53 -308 -41 -22 8 -22 8 -2 19 10 5 103 31 204
57 317 81 460 133 705 257 476 241 618 341 846 597 125 141 140 162 267 386
119 212 138 251 182 375 86 241 133 462 190 895 41 315 53 379 70 390 13 8 13
-247 0 -377 -9 -96 -96 -545 -145 -752 -14 -60 -44 -153 -66 -205 -90 -212
-289 -566 -389 -692 -55 -69 -56 -71 -54 -132 0 -34 6 -63 12 -65 6 -2 32 13
56 34 25 20 69 49 98 63 32 16 61 39 73 58 24 38 38 41 59 11 23 -33 20 -58
-16 -128 -30 -58 -33 -71 -32 -146 1 -69 -1 -84 -15 -89 -21 -7 -60 -64 -72
-108 -5 -19 -23 -52 -40 -73 -17 -22 -62 -91 -99 -155 -38 -63 -75 -121 -83
-128 -9 -6 -25 -32 -36 -57 -12 -24 -36 -61 -54 -82 -53 -59 -77 -98 -77 -124
0 -13 -9 -31 -20 -41 -11 -9 -20 -23 -20 -31 0 -7 -11 -21 -23 -29 -13 -9 -30
-29 -37 -46 -17 -41 -45 -42 -37 -1 7 33 -10 52 -24 27 -5 -9 -37 -33 -72 -53
-34 -21 -82 -57 -107 -79 -65 -60 -91 -75 -126 -75 -17 0 -65 -18 -107 -40
-41 -22 -89 -40 -106 -40 -27 0 -30 3 -29 27 1 16 -2 36 -6 45 -6 13 3 22 41
41 26 14 57 35 68 47 20 22 20 22 0 36 -20 15 -20 15 1 32 12 9 30 33 39 52
10 19 40 62 67 94 59 71 80 110 76 139 -2 18 -13 9 -63 -53 -126 -159 -425
-448 -590 -570 -85 -63 -195 -171 -195 -191 0 -17 40 -9 62 13 15 15 45 27 88
34 36 7 55 13 44 13 -40 2 -47 25 -20 58 14 17 23 32 21 35 -3 3 4 13 16 24
18 16 40 20 133 22 94 3 130 -1 226 -23 63 -15 148 -34 189 -43 l73 -17 23 29
c27 33 49 27 42 -12 -8 -41 1 -51 67 -71 90 -28 243 -40 596 -46 173 -4 337
-10 363 -14 44 -7 49 -6 57 13 38 98 317 232 595 286 138 27 241 56 377 108
120 45 210 91 216 110 6 20 -28 14 -108 -21 -99 -45 -240 -91 -248 -82 -4 4 6
16 21 27 26 19 27 22 12 38 -14 15 -14 18 0 30 8 7 12 17 9 22 -10 16 38 59
94 84 30 14 52 30 52 39 0 8 25 43 56 76 62 67 103 148 174 339 23 63 55 150
71 192 30 79 37 132 19 143 -5 3 -10 20 -10 36 0 22 6 32 25 39 46 18 58 67
59 245 1 186 -4 215 -38 215 -20 0 -25 6 -31 40 -8 46 -21 59 -30 30 -3 -10
-5 -125 -3 -254 3 -219 2 -235 -16 -255 l-19 -21 -23 21 -23 21 -25 -48 c-14
-27 -34 -60 -44 -74 l-17 -24 36 22 c20 12 40 22 44 22 16 0 -6 -43 -81 -154
-110 -163 -111 -164 -93 -146 9 8 48 52 89 98 40 45 75 80 77 78 9 -8 -58
-126 -111 -197 -121 -160 -594 -638 -740 -746 -20 -16 -75 -58 -122 -95 -54
-43 -94 -68 -110 -68 -14 0 -39 -7 -55 -16 -17 -8 -33 -14 -35 -11 -13 13 61
194 216 527 40 85 87 193 105 240 18 47 52 132 75 190 82 204 243 713 257 815
l6 45 -37 0 c-20 0 -39 1 -43 3 -5 1 -11 -23 -14 -54 -3 -31 -21 -88 -40 -129
l-33 -73 -9 32 c-6 24 -3 48 13 92 11 32 20 76 20 97 0 44 26 152 41 167 6 5
9 3 9 -8 0 -9 4 -17 9 -17 15 0 -7 99 -29 130 -29 40 -56 39 -69 -2 -17 -56
-33 -160 -27 -183 4 -14 0 -28 -9 -35 -9 -8 -15 -30 -15 -60 0 -190 -85 -564
-159 -705 -25 -47 -40 -87 -37 -99 6 -22 -6 -48 -40 -89 -14 -16 -24 -42 -24
-58 0 -39 -13 -64 -66 -121 -24 -26 -44 -53 -44 -61 0 -16 -41 -57 -58 -57
-17 0 -15 25 4 61 8 17 13 33 11 35 -8 8 -44 -60 -51 -95 -6 -35 -50 -101 -67
-101 -16 0 -10 30 21 100 17 38 30 76 30 86 0 10 27 71 60 137 36 69 69 151
81 198 12 49 51 144 99 242 44 89 84 182 90 207 112 505 141 701 105 730 -19
16 -19 44 0 73 8 12 21 70 29 127 8 58 18 119 22 137 l6 32 -30 -11 c-17 -7
-34 -9 -38 -6 -7 8 68 153 95 183 24 27 31 61 22 110 l-7 40 -8 -40 c-9 -53
-47 -119 -69 -123 -17 -3 -18 2 -11 60 6 56 6 62 -9 50 -20 -17 -23 -10 -32
68 -8 69 -19 101 -35 97 -5 -1 -21 12 -34 28 l-25 30 -1 -62 c0 -58 11 -86 25
-63 3 5 12 10 19 10 9 0 11 -21 8 -86 -4 -78 -3 -87 17 -100 27 -19 27 -38 0
-55 -24 -17 -38 -72 -39 -151 0 -57 9 -72 40 -73 25 0 23 -35 -3 -55 -44 -35
-80 -163 -93 -335 -10 -141 -51 -346 -94 -473 -21 -65 -53 -168 -70 -231 -38
-140 -81 -247 -123 -302 -64 -84 -95 -151 -96 -206 -1 -39 -8 -62 -27 -90 -14
-21 -46 -77 -71 -125 -25 -49 -59 -99 -75 -113 -32 -27 -51 -27 -24 0 17 18
32 63 23 71 -9 10 -27 -6 -53 -47 -13 -21 -31 -39 -39 -39 -13 0 -13 5 1 38 9
20 18 43 21 49 11 26 -45 12 -88 -22 -64 -51 -68 -43 -10 22 72 80 95 133 96
214 0 58 6 77 48 161 26 52 47 104 47 115 0 11 15 40 33 64 47 61 53 76 61
139 4 30 10 66 13 80 l6 25 -25 -23 c-13 -12 -27 -22 -31 -22 -15 0 -6 49 13
73 11 14 20 34 20 45 0 10 9 27 21 38 34 31 49 70 49 128 0 39 8 73 30 121 61
136 96 275 180 710 12 60 30 129 40 152 17 39 17 44 3 59 -15 14 -15 18 -1 42
23 40 35 124 53 347 17 215 38 362 53 377 12 12 103 -35 139 -72 30 -30 161
-198 174 -223 8 -14 5 -19 -16 -27 -14 -5 -25 -13 -25 -18 0 -17 36 -41 95
-64 73 -27 165 -115 209 -198 16 -30 53 -84 82 -120 28 -36 74 -99 101 -141
72 -114 172 -239 199 -249 23 -9 27 -18 39 -91 3 -21 12 -50 21 -67 8 -17 17
-68 21 -114 3 -45 9 -89 13 -97 4 -8 38 -35 76 -60 66 -44 71 -51 118 -146 40
-81 51 -117 61 -190 7 -49 20 -107 29 -127 22 -50 21 -100 -3 -120 -12 -10
-21 -36 -26 -74 -4 -33 -12 -68 -18 -79 -10 -19 -11 -19 -18 5 -4 14 -8 86 -9
160 -1 134 -10 224 -24 237 -11 12 -23 -16 -31 -71 -12 -93 -84 -439 -110
-531 -46 -161 -63 -233 -70 -301 -9 -79 2 -79 42 -1 24 47 26 50 34 29 5 -12
13 -22 19 -22 24 0 155 303 200 465 12 44 26 84 31 89 5 5 37 13 71 17 45 5
67 13 79 28 l17 21 16 -24 c9 -14 37 -31 68 -41 125 -41 232 -123 271 -208 40
-84 48 -283 21 -517 -8 -74 -18 -258 -21 -407 l-6 -273 53 0 53 0 -6 63 c-4
34 -10 172 -13 307 -6 207 -4 256 9 316 22 94 40 337 35 449 -8 147 -20 161
-247 275 -88 45 -158 87 -180 110 -20 20 -44 39 -53 43 -10 3 -20 19 -24 34
-4 15 -21 55 -39 88 -18 33 -41 87 -50 120 -17 61 -56 140 -114 231 -18 28
-70 145 -117 260 -142 350 -168 393 -384 634 -154 171 -171 193 -205 263 -24
48 -46 75 -105 123 -41 33 -76 68 -78 76 -2 9 -14 19 -26 22 -30 7 -86 70 -86
96 0 21 -57 71 -107 95 -18 9 -33 23 -33 32 0 9 -34 49 -75 89 l-75 73 14 133
c8 73 20 212 26 308 16 257 32 384 105 826 89 537 102 720 61 854 -7 25 -16
77 -20 115 -33 346 -137 612 -375 960 -171 249 -236 320 -416 456 -49 37 -135
109 -190 159 -55 51 -130 111 -167 135 -36 24 -93 64 -127 88 -125 93 -371
200 -540 237 -47 11 -105 26 -128 34 -49 17 -221 40 -468 61 -99 8 -207 22
-240 30 -77 18 -116 19 -141 0z m269 -142 c-7 -2 -19 -2 -25 0 -7 3 -2 5 12 5
14 0 19 -2 13 -5z m969 -131 c130 -66 241 -141 403 -270 76 -62 154 -116 171
-121 36 -10 253 -199 374 -327 85 -89 183 -232 237 -344 20 -41 54 -97 75
-124 75 -95 168 -337 220 -566 20 -92 23 -130 22 -300 -1 -228 -19 -401 -73
-707 -22 -120 -45 -265 -52 -323 -6 -58 -18 -117 -25 -131 -7 -15 -17 -64 -21
-110 -10 -125 -19 -57 -27 201 -5 208 -28 478 -45 550 -4 19 -15 60 -24 90 -9
30 -25 93 -37 140 -33 128 -104 318 -181 481 -38 81 -69 150 -69 154 0 4 -16
25 -35 46 -19 22 -35 46 -35 55 0 21 -269 289 -335 334 -27 18 -69 50 -91 69
-23 20 -77 56 -120 80 -44 25 -99 58 -124 74 -63 42 -160 80 -340 137 -397
125 -662 137 -1161 55 -115 -19 -224 -35 -242 -34 l-32 0 40 18 c22 10 84 33
137 52 54 19 98 37 98 40 0 3 -19 14 -42 24 l-43 19 39 4 c22 2 49 10 60 18
11 8 32 14 46 14 14 0 38 7 54 15 34 18 50 18 99 1 48 -18 46 2 -4 26 -101 50
-257 118 -271 118 -8 0 -27 9 -42 21 -31 24 -87 23 -196 -6 -48 -12 -84 -15
-137 -10 -74 7 -87 15 -55 35 13 8 8 10 -28 8 -44 -3 -45 -3 -48 31 -3 30 -6
33 -30 28 -15 -3 -36 -9 -47 -13 -18 -6 -17 -5 3 16 21 20 22 24 9 37 -13 13
-22 14 -65 3 -27 -7 -57 -10 -66 -7 -27 11 -19 37 14 44 17 3 30 9 30 13 0 13
-50 18 -88 8 -20 -5 -78 -10 -127 -12 -78 -1 -101 -6 -167 -36 -72 -31 -80
-32 -115 -21 -34 11 -45 10 -93 -9 -85 -33 -347 -195 -379 -234 -11 -13 -11
-19 0 -32 11 -13 10 -17 -4 -25 -9 -5 -46 -30 -82 -54 -58 -38 -66 -41 -63
-23 2 12 -2 23 -9 25 -16 6 -76 -57 -98 -103 -10 -21 -44 -66 -74 -99 -106
-113 -130 -144 -140 -183 -6 -21 -26 -58 -43 -82 -54 -70 -68 -94 -68 -115 0
-10 -19 -46 -41 -78 -23 -32 -46 -78 -51 -100 -5 -23 -25 -68 -44 -99 -19 -32
-37 -74 -40 -95 -2 -20 -14 -53 -26 -73 -18 -28 -23 -58 -29 -150 -9 -142 -25
-237 -44 -267 -20 -30 -19 -37 8 -48 31 -14 29 -77 -5 -141 -50 -95 -45 -147
19 -217 21 -23 45 -53 54 -66 20 -32 52 -23 44 12 -4 15 1 32 14 48 l20 24 1
-58 c0 -32 -7 -73 -15 -93 -14 -35 -14 -35 -44 -19 -17 8 -37 15 -46 15 -9 0
-26 5 -38 11 l-21 12 22 8 c26 10 29 31 6 50 -12 10 -22 10 -45 2 -27 -10 -30
-9 -37 15 -13 47 -5 322 12 452 31 227 132 704 161 761 22 42 9 53 -41 35 -22
-7 -59 -17 -84 -21 -25 -3 -63 -15 -85 -25 -99 -47 -390 -52 -547 -11 -95 25
-224 88 -313 153 -81 60 -104 105 -112 216 -4 71 -3 76 11 58 9 -11 16 -31 16
-44 0 -39 29 -88 77 -133 35 -32 50 -40 71 -36 21 4 38 -7 98 -64 72 -68 99
-80 122 -57 18 18 15 37 -13 70 -38 45 -22 45 32 0 85 -71 102 -76 268 -82 83
-3 158 -10 168 -14 14 -7 17 -3 17 18 0 14 1 26 3 26 1 1 35 7 76 14 50 9 89
10 120 4 73 -14 175 6 141 27 -5 3 -10 24 -10 46 l0 39 -43 0 c-31 0 -49 6
-62 20 -15 17 -16 20 -3 20 9 0 21 -7 28 -15 18 -22 45 -19 95 11 57 33 91 30
87 -8 -6 -56 72 -55 123 1 16 19 17 24 5 31 -8 6 -29 10 -46 10 -20 0 -39 10
-59 30 -30 32 -17 42 19 15 26 -19 61 -19 80 1 21 20 20 30 -4 54 -13 13 -19
31 -18 53 3 31 2 32 -31 29 -35 -3 -71 20 -71 45 0 11 6 11 31 -2 40 -21 86
-6 114 37 11 17 45 44 77 61 53 28 110 71 261 197 94 79 222 154 263 154 26 0
34 5 36 20 2 17 13 22 54 28 29 4 103 29 165 54 149 61 220 85 423 144 92 27
179 56 192 65 28 18 56 19 101 3 41 -15 41 -22 3 -45 -30 -17 -39 -33 -19 -33
18 0 52 21 96 60 26 22 58 40 79 43 20 4 54 18 74 32 65 45 220 92 220 67 0
-10 -43 -30 -132 -62 -91 -33 -85 -44 18 -36 49 3 116 13 149 21 85 21 95 20
95 -10 0 -24 3 -25 58 -25 31 0 111 9 177 20 128 21 344 38 333 26 -3 -4 -57
-18 -120 -30 -62 -13 -144 -31 -183 -41 -38 -10 -87 -22 -107 -27 -21 -5 -38
-13 -38 -19 0 -10 29 -7 195 22 134 23 161 24 169 3 5 -14 16 -15 66 -10 85
10 115 23 145 61 27 36 50 38 60 5 7 -21 -18 -75 -37 -84 -7 -3 34 -2 92 1
115 6 100 10 257 -78 50 -28 69 -18 28 16 -33 26 -28 45 8 26 12 -6 53 -36 90
-66 38 -30 75 -55 83 -55 22 0 16 26 -8 37 -31 15 -175 141 -182 159 -7 17 33
-5 115 -63 26 -18 50 -33 53 -33 18 0 -41 59 -97 98 -89 62 -75 95 16 36 55
-36 267 -215 369 -312 57 -55 93 -82 103 -78 21 8 19 23 -6 44 -11 9 -29 34
-40 54 -24 47 -120 128 -269 225 -161 107 -200 139 -200 169 0 32 24 40 56 19
35 -23 42 -11 16 25 -12 16 -22 32 -22 35 0 16 50 0 132 -43z m-2102 -416 c0
-19 -57 -66 -79 -66 -18 0 -41 18 -41 32 0 11 78 46 103 47 9 1 17 -5 17 -13z
m-150 -75 c0 -15 -30 -41 -47 -41 -21 0 -11 23 18 37 29 15 29 15 29 4z m165
-21 c-10 -16 -146 -82 -154 -75 -8 9 24 33 84 61 54 25 80 30 70 14z m255 -34
c0 -19 -21 -35 -57 -42 -41 -8 -49 10 -17 35 30 24 74 28 74 7z m400 -5 c0
-14 -27 -21 -76 -21 -41 0 -53 8 -37 23 10 10 113 8 113 -2z m-615 -28 c-36
-26 -55 -34 -55 -23 0 12 62 52 70 44 3 -3 -4 -12 -15 -21z m705 -3 c24 -16
-7 -32 -49 -26 -41 6 -50 14 -31 26 20 13 61 12 80 0z m-950 -30 c0 -5 -10
-10 -22 -10 -19 0 -20 2 -8 10 19 13 30 13 30 0z m150 -8 c0 -13 -12 -22 -22
-16 -10 6 -1 24 13 24 5 0 9 -4 9 -8z m666 -20 c-9 -9 -37 8 -31 18 5 8 11 7
21 -1 8 -6 12 -14 10 -17z m274 -7 c0 -30 -54 -39 -72 -11 -11 17 1 26 38 26
23 0 34 -5 34 -15z m-373 -12 c5 -14 -33 -27 -48 -17 -9 5 -6 11 7 21 20 14
36 13 41 -4z m250 -20 c5 -13 -25 -26 -38 -17 -6 3 -5 11 2 20 13 16 31 14 36
-3z m-104 -30 c-7 -2 -19 -2 -25 0 -7 3 -2 5 12 5 14 0 19 -2 13 -5z m-513
-83 c0 -5 -9 -10 -21 -10 -11 0 -17 5 -14 10 3 6 13 10 21 10 8 0 14 -4 14
-10z m-1100 -60 c-13 -24 -107 -100 -123 -99 -7 0 1 10 18 22 36 27 64 56 89
93 21 30 34 18 16 -16z m1440 19 c0 -5 -9 -9 -20 -9 -19 0 -26 11 -14 23 8 8
34 -3 34 -14z m-520 -60 c-7 -12 -21 -19 -38 -19 l-27 1 28 24 c32 28 53 25
37 -6z m160 -24 c10 -12 9 -20 -4 -40 -37 -57 -3 -60 124 -10 49 19 96 35 104
35 7 0 19 7 26 15 8 10 31 15 66 15 98 0 61 -33 -98 -86 l-108 -35 7 -61 c5
-50 4 -60 -8 -56 -8 2 -22 21 -32 41 -24 47 -56 49 -118 8 -24 -16 -57 -33
-74 -37 -16 -3 -37 -12 -45 -19 -8 -7 -26 -16 -40 -20 -39 -11 -150 -79 -200
-122 -25 -21 -58 -45 -73 -53 -43 -22 -224 -197 -239 -231 -7 -18 -29 -39 -50
-50 -20 -10 -39 -28 -43 -39 -3 -11 -22 -27 -41 -36 -39 -19 -143 -135 -210
-235 -45 -68 -56 -109 -30 -109 26 0 29 -21 7 -44 -12 -12 -21 -28 -21 -34 0
-19 35 -14 55 8 10 11 22 20 26 20 12 0 3 -25 -34 -97 -29 -57 -33 -84 -9 -69
5 3 38 47 72 98 76 112 69 103 76 96 7 -7 -29 -80 -106 -213 -146 -254 -152
-285 -100 -504 17 -73 29 -135 26 -138 -8 -8 -78 137 -107 222 -15 43 -32 81
-38 83 -17 6 -33 -49 -27 -95 3 -24 23 -78 45 -120 22 -43 38 -79 36 -82 -3
-2 -30 19 -60 48 -30 29 -60 49 -65 46 -6 -3 -10 -21 -10 -39 0 -33 26 -69 65
-92 19 -11 19 -11 1 -39 -10 -16 -36 -47 -57 -70 -66 -71 -82 -141 -47 -207
11 -22 44 -24 52 -3 8 21 26 19 26 -3 0 -29 -28 -60 -58 -64 l-27 -3 -3 -115
c-1 -63 -3 -143 -4 -177 -2 -48 2 -66 17 -83 16 -18 17 -25 7 -54 -18 -48 -15
-65 13 -76 29 -11 31 -22 10 -40 -8 -7 -18 -30 -21 -51 -4 -22 -8 -39 -10 -39
-2 0 -13 8 -24 18 -11 9 -32 19 -47 22 -19 4 -29 14 -35 35 -16 53 -22 569 -8
715 24 266 83 532 164 740 29 74 70 180 91 235 79 204 207 427 330 575 95 114
302 311 374 355 35 22 88 61 116 87 33 30 87 64 151 93 153 71 165 78 182 103
12 18 13 28 3 48 -6 14 -9 30 -6 35 9 14 51 11 65 -6z m-1944 -62 c29 -12 34
-18 21 -21 -28 -6 -64 6 -71 23 -7 19 3 19 50 -2z m279 7 c3 -5 -1 -10 -9 -10
-8 0 -18 5 -21 10 -3 6 1 10 9 10 8 0 18 -4 21 -10z m-110 -13 l50 -13 -46
-12 c-25 -6 -62 -23 -82 -36 l-37 -26 5 25 c3 14 7 36 10 50 6 29 25 31 100
12z m-235 -42 c10 -12 10 -19 2 -27 -15 -15 -48 14 -38 31 10 15 21 14 36 -4z
m321 -63 c-20 -38 -61 -53 -61 -22 0 16 31 40 51 40 16 0 18 -3 10 -18z m-231
-20 c0 -15 -4 -42 -9 -59 -9 -30 -7 -35 21 -56 l30 -24 -26 -5 c-20 -4 -36 4
-71 34 -25 22 -45 45 -45 51 0 12 79 86 93 87 4 0 7 -12 7 -28z m669 -8 c-14
-18 -24 -11 -15 11 3 9 11 13 16 10 8 -5 7 -11 -1 -21z m-611 -3 c3 -8 -1 -12
-9 -9 -7 2 -15 10 -17 17 -3 8 1 12 9 9 7 -2 15 -10 17 -17z m2862 -26 c0 -8
-4 -15 -10 -15 -5 0 -10 7 -10 15 0 8 5 15 10 15 6 0 10 -7 10 -15z m828 -4
c3 -8 -1 -12 -9 -9 -7 2 -15 10 -17 17 -3 8 1 12 9 9 7 -2 15 -10 17 -17z
m-3071 -17 c2 -6 -12 -30 -32 -54 -19 -23 -35 -53 -35 -66 0 -13 -11 -47 -24
-76 -30 -67 -45 -111 -58 -168 -6 -25 -16 -52 -24 -61 -18 -20 -18 -29 3 -44
16 -12 15 -16 -12 -50 -80 -101 -86 -111 -95 -178 -6 -36 -18 -85 -29 -109
-10 -24 -25 -63 -32 -87 -8 -25 -20 -46 -26 -49 -33 -10 -1 125 96 410 33 97
67 214 75 259 17 89 55 179 105 247 26 35 37 43 58 40 15 -2 28 -8 30 -14z
m1813 -15 c0 -16 -31 -22 -43 -10 -9 9 -9 14 2 20 16 10 41 4 41 -10z m-1760
-193 c0 -17 -14 -29 -23 -20 -8 8 3 34 14 34 5 0 9 -6 9 -14z m3188 -78 c12
-12 -1 -38 -19 -38 -11 0 -39 29 -39 41 0 13 44 11 58 -3z m-1128 -102 c-13
-13 -35 7 -25 24 5 8 11 8 21 -1 10 -8 12 -15 4 -23z m-495 -16 c11 -18 -5
-31 -26 -20 -11 6 -17 15 -14 21 8 12 32 12 40 -1z m240 -30 c4 -6 -5 -10 -19
-10 -14 0 -26 5 -26 10 0 6 9 10 19 10 11 0 23 -4 26 -10z m1563 -68 c3 -9 -3
-13 -19 -10 -12 1 -24 9 -27 16 -3 9 3 13 19 10 12 -1 24 -9 27 -16z m-3168
-286 c-30 -36 -55 -64 -57 -62 -7 7 46 105 68 127 15 15 24 18 31 11 8 -8 -5
-31 -42 -76z m59 -25 c-12 -33 -52 -81 -69 -81 -13 0 1 30 37 78 30 40 45 42
32 3z m460 -149 c-124 -97 -249 -185 -255 -179 -19 19 75 98 226 191 103 64
117 58 29 -12z m-1139 -66 c0 -16 -18 -31 -27 -22 -8 8 5 36 17 36 5 0 10 -6
10 -14z m1482 -21 c3 -17 -59 -52 -168 -95 -102 -40 -144 -44 -144 -16 0 7 8
20 18 29 25 23 163 85 209 95 41 9 81 3 85 -13z m-1512 -75 c0 -11 -4 -20 -9
-20 -11 0 -22 26 -14 34 12 12 23 5 23 -14z m2028 -78 c15 -12 48 -33 73 -46
62 -33 74 -49 54 -70 -20 -20 -48 -20 -85 -1 -40 21 -147 42 -302 59 -123 14
-168 27 -168 46 0 27 90 39 263 36 124 -2 140 -5 165 -24z m-2033 -64 c-8 -60
-29 -118 -43 -118 -25 0 -32 28 -18 67 39 110 73 138 61 51z m2375 -64 c0 -14
-4 -23 -10 -19 -5 3 -10 15 -10 26 0 10 5 19 10 19 6 0 10 -12 10 -26z m-1360
-13 c0 -12 -20 -25 -27 -18 -7 7 6 27 18 27 5 0 9 -4 9 -9z m1154 -40 c3 -4 3
-11 0 -14 -8 -8 -34 3 -34 14 0 11 27 12 34 0z m-1104 -36 c0 -8 -15 -66 -34
-128 -19 -61 -37 -138 -41 -169 -6 -50 -5 -59 10 -65 23 -8 47 21 108 130 53
96 106 171 114 163 3 -3 -15 -51 -42 -107 -42 -89 -46 -104 -35 -124 18 -34 7
-51 -52 -81 -29 -15 -56 -31 -59 -37 -10 -14 3 -50 60 -167 28 -58 51 -117 51
-132 0 -31 3 -33 32 -17 23 12 46 -5 109 -84 66 -83 45 -93 -35 -17 -29 28
-56 50 -60 50 -5 0 4 -20 18 -45 33 -56 22 -57 -29 -4 -22 22 -56 49 -75 59
-40 21 -81 74 -134 177 -42 79 -55 91 -136 116 -107 33 -156 79 -142 132 12
42 37 43 58 3 23 -46 44 -68 65 -68 21 0 39 28 39 62 0 19 76 193 127 293 32
61 83 98 83 60z m370 -31 c21 -20 45 -51 52 -69 7 -21 19 -35 31 -37 25 -4 42
-51 62 -167 15 -86 13 -114 -11 -139 -27 -27 -11 -73 47 -137 39 -42 41 -47
37 -97 l-3 -53 35 -3 c80 -8 318 155 338 231 14 54 32 45 32 -18 0 -49 -4 -60
-27 -82 -62 -56 -222 -174 -278 -205 -57 -31 -65 -33 -160 -33 -90 1 -108 4
-175 33 -85 36 -184 107 -253 181 -43 46 -47 55 -47 99 0 50 9 65 45 74 11 3
28 9 38 13 12 5 17 3 17 -8 0 -8 -7 -17 -15 -21 -25 -9 -17 -46 19 -82 26 -26
42 -34 70 -34 45 0 52 14 58 116 4 66 8 84 26 102 23 23 29 57 12 67 -5 3 -10
20 -10 36 0 29 -2 30 -37 27 -38 -3 -38 -3 -41 -50 -2 -27 -6 -48 -10 -48 -4
0 -17 15 -29 33 -19 27 -21 41 -16 90 6 62 26 87 70 87 18 0 23 6 23 24 0 16
7 27 22 32 19 6 19 7 5 16 -22 12 -22 34 1 47 25 15 28 14 72 -25z m1520 -24
c0 -5 -21 -21 -47 -36 -92 -52 -154 -128 -167 -206 -5 -29 -13 -39 -31 -44
-32 -8 -31 -13 5 -59 17 -21 30 -42 30 -46 0 -5 16 -9 35 -9 28 0 35 -4 35
-20 0 -16 -7 -20 -35 -20 -35 0 -35 0 -35 -45 0 -70 34 -323 111 -835 34 -225
13 -380 -55 -411 -51 -24 -142 69 -105 106 8 8 39 20 69 28 l55 14 -3 102 c-3
121 -24 195 -75 269 -43 63 -72 138 -87 225 l-12 65 -50 4 c-40 4 -54 2 -69
-13 -11 -11 -28 -19 -39 -19 -26 0 -25 3 -55 -160 -13 -74 -31 -155 -39 -180
l-14 -45 -1 97 c-1 53 4 154 10 223 6 70 8 129 5 132 -3 4 -14 -1 -24 -10 -23
-21 -31 -21 -55 0 -18 17 -20 16 -50 -21 -60 -73 -257 -266 -272 -266 -8 0
-15 4 -15 8 0 8 50 68 168 200 39 45 72 85 72 88 0 7 -44 -28 -196 -152 -61
-50 -142 -112 -180 -139 -97 -68 -143 -114 -154 -155 -12 -43 -13 -257 -1
-264 4 -3 16 3 26 14 10 11 24 20 31 20 8 0 19 9 26 20 20 31 34 24 57 -31 25
-58 18 -79 -29 -79 -44 0 -60 -10 -75 -46 -7 -18 -27 -40 -45 -49 -26 -14 -31
-21 -28 -48 3 -29 0 -32 -26 -35 -51 -6 -73 5 -90 48 -9 22 -16 48 -16 58 1
16 1 16 11 0 5 -10 18 -18 27 -18 26 0 79 36 98 66 17 25 17 27 1 39 -9 7 -17
22 -17 34 0 12 -7 24 -15 27 -31 12 -68 -8 -130 -71 -35 -36 -68 -65 -74 -65
-19 0 -12 35 14 70 14 19 25 44 25 57 0 26 27 43 68 43 16 0 40 8 53 19 23 18
23 19 5 46 -15 22 -16 32 -7 52 6 13 11 37 11 54 0 16 6 42 14 58 29 55 271
271 305 271 15 0 184 163 212 205 13 19 29 35 36 35 7 0 17 17 22 38 6 20 31
69 57 107 25 39 68 115 94 170 27 55 57 109 68 118 15 14 39 19 99 21 54 1 90
8 118 21 35 18 41 25 45 61 7 50 26 81 99 158 78 82 127 116 168 116 18 0 33
-4 33 -10z m-670 -46 c15 -37 12 -64 -6 -71 -21 -8 -44 22 -44 57 0 47 34 57
50 14z m988 6 c90 -41 227 -50 363 -24 145 28 329 6 329 -38 0 -6 8 -20 18
-31 17 -20 16 -20 -63 -14 -44 4 -93 10 -109 13 -22 5 -28 4 -24 -7 3 -8 14
-15 26 -17 26 -4 31 -46 6 -56 -26 -10 -194 -7 -215 4 -10 6 -19 19 -19 30 0
24 -43 58 -86 66 -18 3 -56 1 -84 -6 -46 -11 -53 -10 -72 6 -14 13 -41 21 -86
24 -54 4 -67 8 -70 23 -4 20 14 47 32 47 6 0 31 -9 54 -20z m-3549 -84 c-13
-29 -32 -36 -22 -8 8 22 25 44 30 39 2 -3 -2 -16 -8 -31z m2335 -8 c-8 -12
-34 11 -34 30 0 13 3 12 20 -3 11 -10 17 -22 14 -27z m-2154 -48 c8 -15 7 -27
-5 -50 -22 -42 -35 -37 -35 13 0 59 19 77 40 37z m4231 10 c18 -10 69 -98 69
-120 0 -13 -61 -13 -96 0 l-27 11 22 22 c29 32 26 54 -11 77 l-33 20 28 0 c16
0 37 -5 48 -10z m-2041 -63 c0 -47 -25 -26 -28 24 -2 41 -1 43 13 25 8 -11 15
-33 15 -49z m-2370 29 c-5 -14 -21 -49 -36 -78 -21 -42 -25 -58 -17 -78 15
-41 -22 -149 -43 -127 -9 9 26 195 47 251 15 41 26 56 39 56 17 0 18 -4 10
-24z m2608 -28 c-6 -16 -36 -34 -44 -25 -9 9 15 37 33 37 8 0 13 -5 11 -12z
m1000 -60 c17 -11 32 -22 32 -26 0 -11 -33 -42 -46 -42 -16 0 -74 70 -74 88 0
18 42 8 88 -20z m-988 -17 c0 -12 -29 -35 -36 -28 -11 10 5 37 21 37 8 0 15
-4 15 -9z m1712 -62 c30 -16 97 -165 127 -285 12 -43 40 -64 87 -64 19 0 25
-5 22 -17 -3 -14 -13 -18 -49 -16 l-46 1 -7 -76 c-3 -41 -6 -98 -6 -126 0 -54
-15 -94 -24 -66 -2 8 -7 65 -11 125 -7 129 -37 313 -52 323 -6 4 -14 18 -18
32 -4 14 -18 38 -31 53 -21 25 -44 84 -44 115 0 15 24 16 52 1z m-3422 -18 c0
-12 -20 -25 -27 -18 -7 7 6 27 18 27 5 0 9 -4 9 -9z m2400 -1 c0 -5 -10 -20
-21 -31 -24 -24 -40 -12 -32 22 6 20 53 28 53 9z m-3180 -59 c-1 -21 -25 -53
-33 -44 -9 9 -9 78 0 87 9 9 33 -23 33 -43z m900 6 c0 -28 -151 -70 -172 -49
-9 9 -9 15 -1 23 32 32 173 53 173 26z m2212 -36 c6 -22 3 -61 -11 -128 -22
-102 -33 -123 -62 -123 -23 0 -33 35 -27 99 5 54 66 193 82 188 5 -2 14 -18
18 -36z m1345 -3 c-3 -8 -6 -5 -6 6 -1 11 2 17 5 13 3 -3 4 -12 1 -19z m-3447
-8 c17 -11 12 -13 -68 -29 -70 -14 -95 -14 -90 2 10 27 125 48 158 27z m-1217
-66 c8 -8 -3 -34 -14 -34 -5 0 -9 9 -9 20 0 19 11 26 23 14z m937 -9 c0 -3 -5
-14 -12 -25 -16 -25 -3 -38 22 -22 28 17 30 16 30 -19 0 -48 -34 -98 -68 -99
-9 0 -7 9 7 29 32 45 25 47 -23 7 -43 -35 -70 -44 -80 -28 -14 24 79 162 110
162 8 0 14 -2 14 -5z m1590 -4 c0 -12 -20 -25 -27 -18 -7 7 6 27 18 27 5 0 9
-4 9 -9z m-412 -18 c5 -17 -26 -29 -40 -15 -6 6 -7 15 -3 22 9 14 37 9 43 -7z
m302 -123 c-25 -35 -46 -41 -29 -7 18 34 43 60 47 48 2 -6 -6 -24 -18 -41z
m2436 8 c71 -48 76 -63 69 -193 -9 -180 -33 -295 -110 -540 -24 -77 -48 -158
-54 -180 -6 -23 -31 -65 -56 -94 -60 -70 -84 -119 -135 -276 -70 -212 -128
-325 -169 -325 -29 0 -100 57 -107 86 -6 22 -2 31 19 46 14 10 31 34 37 53 9
28 17 35 37 35 25 0 25 2 20 43 -5 35 -2 46 13 60 11 9 20 23 20 31 0 8 14 24
30 36 27 19 30 27 30 75 0 36 4 55 14 58 18 7 40 100 32 133 -4 13 -20 39 -37
56 -21 22 -26 35 -19 42 21 21 64 -16 81 -69 21 -67 45 -67 81 0 14 27 34 55
43 61 11 8 13 14 5 19 -33 21 -30 95 4 95 17 0 26 22 26 59 0 15 9 38 20 51
21 24 47 104 61 189 17 103 10 270 -17 439 -8 51 -2 52 62 10z m317 -5 c3 -15
3 -33 0 -40 -9 -24 -23 -2 -23 38 0 44 15 45 23 2z m-5250 14 c10 -27 -24 -78
-84 -124 -175 -134 -212 -168 -259 -238 -27 -39 -87 -119 -135 -176 -101 -122
-112 -139 -90 -139 21 0 19 -22 -7 -58 -13 -17 -35 -48 -51 -69 -38 -53 -143
-216 -161 -252 -9 -16 -16 -38 -16 -48 0 -10 -14 -45 -30 -78 -35 -71 -37
-102 -9 -149 31 -53 23 -80 -27 -86 -70 -10 -182 -96 -218 -169 -13 -25 -33
-54 -45 -65 -19 -18 -22 -18 -46 -2 -14 9 -25 22 -25 28 0 7 -17 29 -37 50
l-37 38 27 0 c29 0 67 31 67 55 0 21 -10 19 -37 -7 l-24 -22 16 43 c22 63 20
74 -10 67 -41 -10 -31 18 49 142 24 37 68 117 98 177 116 236 264 426 512 657
231 216 371 331 490 402 65 39 81 43 89 23z m-1823 -44 c78 -20 177 -59 235
-93 62 -36 101 -55 240 -119 l110 -50 265 -3 265 -3 102 36 c56 20 104 34 107
32 12 -12 -18 -44 -91 -100 -100 -75 -212 -133 -340 -175 -55 -19 -127 -50
-158 -69 -68 -41 -155 -123 -155 -147 0 -10 -6 -26 -14 -37 -9 -14 -15 -74
-20 -195 -6 -140 -11 -180 -24 -199 -9 -13 -26 -39 -37 -59 -14 -24 -31 -39
-53 -44 -18 -5 -32 -13 -32 -18 0 -17 45 -40 78 -40 22 0 32 -4 30 -12 -6 -17
-57 -29 -94 -23 -28 5 -34 1 -53 -30 l-21 -36 -40 38 c-49 48 -76 112 -140
336 -67 237 -78 283 -90 370 -6 42 -22 104 -36 139 -35 86 -94 198 -105 198
-5 0 -9 13 -9 29 0 17 -11 42 -25 59 -54 64 -88 180 -65 221 10 21 16 22 63
16 29 -4 77 -14 107 -22z m2600 9 c0 -13 -12 -22 -22 -16 -10 6 -1 24 13 24 5
0 9 -4 9 -8z m1613 -22 c3 -14 14 -20 31 -20 14 0 26 -4 26 -9 0 -16 -267
-244 -313 -268 -54 -29 -81 -30 -74 -3 5 18 0 20 -36 20 -44 0 -108 26 -115
47 -5 18 78 68 173 104 112 43 240 106 260 130 23 25 41 24 48 -1z m-1313 -52
c0 -12 -74 -121 -93 -136 -24 -21 -28 2 -6 39 11 19 31 58 46 88 24 50 27 53
39 36 8 -10 14 -23 14 -27z m2998 -2 c34 -18 142 -132 164 -174 31 -57 70 -55
143 8 41 35 75 51 75 35 0 -3 -9 -23 -20 -45 -24 -46 -25 -79 -6 -106 12 -16
31 -20 134 -24 81 -3 124 -9 136 -19 32 -27 2 -35 -74 -21 -58 11 -79 11 -125
0 -42 -10 -61 -11 -80 -2 -45 21 -65 15 -72 -20 -9 -46 -89 -119 -186 -169
-45 -23 -94 -52 -110 -65 -15 -13 -33 -21 -41 -18 -7 3 -19 -2 -26 -11 -15
-18 -41 -20 -58 -3 -18 18 -15 26 11 30 22 3 22 4 -5 21 -25 17 -29 17 -50 3
-12 -9 -35 -16 -50 -16 -16 0 -28 -4 -28 -8 0 -5 23 -28 51 -52 52 -44 79 -89
79 -134 0 -13 11 -38 25 -54 29 -35 31 -45 10 -62 -13 -11 -18 -10 -29 5 -18
24 -44 13 -52 -22 -10 -47 -13 -53 -27 -53 -8 0 -38 24 -67 52 -85 86 -98 132
-44 156 47 22 69 8 57 -36 -7 -27 9 -34 47 -21 62 22 61 90 -2 129 -60 38
-202 179 -232 232 -35 60 -32 101 2 46 28 -45 37 -46 77 -13 27 22 28 26 13
35 -70 42 -128 134 -128 201 0 67 47 57 74 -15 23 -60 92 -120 192 -170 96
-48 159 -56 235 -31 29 10 66 18 82 17 33 -1 109 31 128 54 9 11 9 17 -1 29
-20 24 -78 18 -139 -16 -54 -30 -62 -31 -124 -25 -37 4 -67 11 -67 15 0 4 14
20 30 36 40 38 40 65 0 65 -71 0 -160 62 -160 111 0 38 40 82 102 113 58 29
96 33 136 12z m-668 -14 c0 -10 -7 -27 -15 -38 -14 -18 -14 -17 -15 12 0 17 3
34 7 37 12 13 23 7 23 -11z m1970 -19 c0 -10 -4 -25 -10 -33 -8 -12 -10 -12
-16 3 -7 20 1 47 16 47 5 0 10 -8 10 -17z m-4250 -29 c0 -3 -5 -14 -10 -25 -9
-16 -7 -19 14 -19 14 0 27 -4 30 -9 3 -5 16 -7 28 -4 44 12 63 -55 28 -100
-26 -33 -27 -51 -1 -37 28 14 31 13 31 -13 0 -34 -20 -56 -65 -71 -32 -11 -41
-20 -46 -45 -7 -36 -27 -63 -40 -55 -14 8 -11 61 6 101 17 41 16 43 -27 58
-48 16 -57 39 -28 70 l25 27 5 -23 6 -23 22 22 c33 33 28 48 -15 44 -53 -4
-70 9 -55 42 14 32 92 83 92 60z m-913 -56 c-3 -7 -5 -2 -5 12 0 14 2 19 5 13
2 -7 2 -19 0 -25z m681 3 c19 -11 -51 -25 -81 -15 -21 7 -21 7 -2 15 27 10 67
11 83 0z m-687 -113 c-14 -75 -23 -221 -14 -233 5 -5 17 -15 28 -21 23 -13 32
-68 14 -90 -6 -8 -22 -14 -35 -14 -21 0 -24 -5 -24 -36 0 -19 5 -44 10 -54 7
-14 5 -33 -11 -72 -18 -47 -19 -53 -5 -64 22 -15 20 -46 -4 -77 -26 -32 -25
-36 5 -47 23 -9 25 -13 19 -52 l-7 -43 22 20 c28 24 47 14 78 -41 23 -40 31
-108 13 -119 -9 -6 -21 10 -63 86 -23 41 -32 31 -13 -14 13 -32 13 -37 0 -48
-8 -7 -13 -18 -10 -24 5 -13 -29 -95 -39 -95 -4 0 -4 13 0 30 8 35 -1 70 -18
70 -17 0 -34 -31 -42 -73 -7 -34 -5 -37 31 -51 52 -21 67 -30 72 -44 5 -17
-83 -15 -133 3 -21 8 -41 12 -44 9 -10 -9 22 -233 44 -309 13 -44 21 -82 18
-85 -7 -7 -63 62 -63 79 0 8 -20 58 -45 112 -25 53 -50 123 -56 155 -18 99
-21 106 -59 118 -48 15 -47 42 2 38 49 -4 58 15 65 136 5 88 9 99 32 122 l26
25 -27 3 c-22 3 -28 9 -28 26 0 19 4 22 23 19 15 -3 32 4 50 21 24 22 26 29
16 47 -7 13 -9 42 -6 70 5 42 3 50 -14 60 -16 8 -18 13 -8 25 6 8 19 14 29 14
28 0 38 20 45 90 4 36 13 72 20 80 36 44 42 100 10 100 -18 0 -27 28 -12 37 7
4 22 6 34 5 23 -3 27 5 39 73 7 44 32 100 41 92 2 -3 0 -29 -6 -59z m5149 -10
c0 -29 -5 -60 -10 -68 -7 -11 -10 5 -10 53 0 38 4 67 10 67 6 0 10 -24 10 -52z
m-2636 -1 c7 -31 -8 -118 -34 -191 -20 -54 -21 -72 -15 -200 8 -156 1 -189
-41 -208 -22 -10 -32 -9 -62 7 -58 31 -82 76 -82 152 0 83 22 143 110 300 95
168 112 187 124 140z m773 -19 c-3 -7 -5 -2 -5 12 0 14 2 19 5 13 2 -7 2 -19
0 -25z m-2200 -70 c-22 -50 -49 -79 -62 -66 -9 9 13 48 48 86 17 17 32 32 34
32 1 0 -8 -23 -20 -52z m-380 16 c9 -23 -13 -40 -32 -24 -12 10 -13 16 -4 26
15 18 28 18 36 -2z m2053 -178 c-5 -5 -10 -23 -10 -40 0 -28 1 -29 14 -10 19
25 22 20 41 -55 20 -78 22 -143 5 -201 -17 -61 -39 -81 -93 -87 l-44 -5 -18
57 c-17 53 -17 60 -2 103 9 26 25 101 37 167 20 124 44 215 64 250 9 16 12 2
14 -74 2 -56 -1 -98 -8 -105z m528 102 c44 -78 86 -168 80 -173 -2 -2 -15 -6
-30 -10 -41 -10 -72 27 -102 124 -27 84 -31 113 -19 124 16 17 32 2 71 -65z
m738 27 c-22 -17 -46 -20 -46 -6 0 11 18 19 45 20 20 0 20 0 1 -14z m-4247
-50 c11 -24 12 -37 2 -70 -7 -22 -16 -57 -20 -78 -5 -21 -13 -43 -19 -49 -20
-20 -25 19 -8 69 32 94 8 127 -40 53 -14 -21 -42 -48 -60 -59 -35 -21 -54 -54
-54 -96 0 -16 -12 -33 -35 -51 -23 -17 -39 -40 -46 -68 -6 -22 -20 -58 -30
-78 -13 -26 -19 -58 -19 -106 0 -79 -27 -146 -65 -164 -29 -13 -38 -33 -25
-58 26 -49 -12 -133 -73 -160 -36 -16 -37 -18 -21 -34 9 -9 29 -20 45 -23 40
-8 43 -17 20 -60 -43 -84 -71 -146 -71 -159 0 -13 5 -12 29 2 27 16 29 16 60
-7 l33 -24 -29 -6 c-15 -3 -37 -10 -48 -16 -11 -6 -33 -15 -49 -19 -34 -11
-52 -35 -42 -59 5 -14 9 -15 21 -5 20 16 57 -1 81 -38 13 -20 14 -26 3 -33
-16 -9 -84 -1 -113 13 -12 7 -22 6 -29 -1 -18 -18 -27 -13 -27 17 0 16 9 39
20 52 11 13 20 36 20 52 0 16 9 47 21 69 11 22 18 46 16 52 -4 12 -27 -22 -96
-140 -23 -40 -46 -73 -51 -73 -6 0 -10 -14 -10 -30 0 -17 -7 -44 -15 -59 -18
-36 -45 -112 -45 -130 0 -10 9 -12 35 -8 27 4 38 2 48 -14 13 -17 16 -18 27
-4 17 21 30 9 30 -28 0 -38 -14 -65 -24 -48 -4 6 -19 11 -33 11 -14 0 -41 9
-59 21 -18 11 -44 19 -56 17 -20 -3 -23 1 -20 25 4 35 -12 55 -63 77 l-39 17
47 11 c26 7 47 16 47 21 0 6 12 11 28 13 25 3 27 7 32 58 3 33 21 88 43 136
37 82 45 114 28 114 -5 0 -25 -26 -44 -57 -20 -32 -46 -75 -58 -95 -13 -21
-29 -38 -35 -38 -12 0 7 82 66 283 l23 78 -22 30 c-25 33 -22 43 20 64 24 13
29 21 29 53 -1 20 -5 57 -10 82 -9 48 0 84 15 60 5 -7 11 -27 14 -43 4 -17 11
-32 17 -34 13 -4 33 39 39 85 5 46 29 80 70 99 19 9 35 24 35 33 0 8 11 31 24
50 12 19 29 52 35 73 8 24 23 43 42 53 16 8 42 31 57 52 63 85 338 365 354
360 7 -3 19 -17 27 -33z m4781 3 c23 -39 25 -58 6 -58 -13 0 -46 56 -46 79 0
22 21 10 40 -21z m-3401 -20 c-6 -24 -5 -38 7 -56 15 -22 14 -25 -13 -50 -28
-27 -28 -27 -5 -30 30 -5 28 -15 -14 -62 -46 -51 -37 -65 26 -40 36 14 50 16
50 7 0 -7 -26 -50 -57 -97 l-58 -85 -5 50 c-3 28 -14 65 -24 83 -17 34 -17 34
10 73 24 35 26 42 14 63 -9 18 -10 32 -1 58 10 30 67 118 76 118 2 0 -1 -14
-6 -32z m164 -8 c-7 -38 17 -41 41 -5 23 35 36 31 36 -10 0 -24 5 -35 15 -35
15 0 20 -16 16 -59 -1 -13 3 -37 10 -52 9 -23 9 -32 -1 -44 -11 -13 -6 -14 35
-8 l47 6 -20 -40 c-21 -41 -84 -109 -188 -200 -55 -50 -58 -54 -41 -70 16 -16
19 -16 62 5 41 20 85 29 85 17 0 -2 -9 -28 -21 -57 -25 -63 -38 -215 -21 -244
6 -10 12 -13 12 -6 0 23 28 12 38 -17 7 -20 19 -30 41 -34 41 -9 70 -64 53
-102 -17 -37 -35 -31 -70 25 -17 28 -38 50 -46 50 -9 0 -13 -6 -11 -12 3 -8
-13 -21 -36 -32 -38 -17 -44 -17 -104 -2 -78 19 -70 19 -89 0 -11 -11 -16 -34
-16 -77 0 -65 6 -81 30 -89 13 -4 15 -48 16 -309 1 -445 22 -637 84 -777 32
-71 45 -83 67 -61 6 6 21 9 34 7 22 -3 24 -7 21 -56 -2 -31 1 -59 8 -67 18
-22 30 -8 23 25 -7 37 14 48 59 29 40 -17 98 -67 98 -85 0 -10 13 -14 46 -14
l46 0 -7 -64 c-8 -75 7 -97 30 -42 18 43 28 49 69 42 35 -7 105 -60 94 -71 -4
-4 -28 -2 -54 4 -35 9 -49 9 -60 0 -19 -15 -18 -58 2 -80 9 -10 14 -26 12 -36
-3 -15 -9 -13 -36 16 -18 18 -32 39 -32 47 0 8 -7 14 -16 14 -13 0 -15 -7 -9
-40 9 -53 -8 -52 -35 3 -11 23 -27 53 -35 67 -8 14 -15 41 -15 60 -1 33 -1 34
-15 16 -12 -16 -18 -17 -27 -8 -14 14 -48 16 -48 3 0 -6 27 -65 61 -133 58
-117 60 -126 55 -178 -9 -98 -26 -160 -43 -160 -11 0 -14 6 -9 23 4 12 12 63
18 113 10 83 9 93 -10 130 -11 21 -68 93 -126 159 -229 259 -262 344 -285 730
-15 241 -14 235 -86 600 -35 176 -66 347 -70 380 -9 74 -21 104 -73 179 -23
33 -42 65 -42 71 0 7 -10 20 -21 31 -31 27 -69 113 -69 156 0 29 -6 41 -25 54
-34 22 -33 54 0 54 44 0 93 -27 110 -60 9 -17 30 -39 47 -49 26 -17 30 -25 32
-66 2 -43 6 -51 46 -86 25 -21 51 -38 59 -36 8 1 19 17 23 35 7 28 12 31 33
26 37 -9 64 4 79 39 8 18 46 63 85 101 80 77 89 107 36 116 -40 7 -56 58 -32
100 23 38 22 40 -17 40 -34 0 -34 0 -29 40 5 36 3 40 -16 40 -11 0 -21 5 -21
10 0 6 15 10 33 10 21 0 41 8 52 20 23 26 36 17 28 -20z m843 5 c15 -38 12
-55 -11 -55 -20 0 -38 38 -31 66 9 34 25 30 42 -11z m2964 -1 c0 -8 -4 -14
-10 -14 -5 0 -10 9 -10 21 0 11 5 17 10 14 6 -3 10 -13 10 -21z m-4110 -41 c0
-9 -12 -34 -26 -55 -41 -58 -60 -48 -28 15 29 57 54 76 54 40z m-80 -2 c0 -11
-28 -41 -39 -41 -18 0 -20 15 -4 32 17 19 43 24 43 9z m1614 -67 c3 -9 6 -26
6 -38 0 -12 7 -31 15 -42 17 -23 19 -88 4 -135 -31 -93 -49 -56 -49 104 0 116
8 153 24 111z m-944 -33 c0 -5 -7 -14 -15 -21 -18 -15 -42 1 -31 19 8 13 46
15 46 2z m-899 -22 c21 -21 23 -60 2 -66 -13 -5 -53 52 -53 75 0 19 28 14 51
-9z m135 -22 c-3 -13 1 -25 12 -33 13 -10 14 -15 5 -25 -10 -10 -15 -9 -28 1
-15 12 -21 71 -9 83 12 12 26 -5 20 -26z m3601 -24 c-3 -10 -5 -4 -5 12 0 17
2 24 5 18 2 -7 2 -21 0 -30z m-4401 -17 c28 -22 6 -41 -24 -20 -12 8 -22 19
-22 25 0 14 23 11 46 -5z m3339 -36 c3 -6 -1 -13 -10 -16 -19 -8 -30 0 -20 15
8 14 22 14 30 1z m-2932 -41 c5 -19 7 -106 4 -194 -5 -160 -19 -262 -40 -300
-10 -18 -12 -14 -18 30 -16 116 -21 322 -10 394 18 114 45 144 64 70z m753
-68 c-20 -39 -41 -71 -46 -71 -33 0 -13 71 35 128 45 54 51 24 11 -57z m2204
39 c21 -39 8 -73 -35 -94 -44 -20 -61 -15 -85 27 -21 38 0 57 29 28 l22 -22
13 33 c23 54 38 61 56 28z m-3310 -40 c0 -15 -7 -20 -25 -20 -27 0 -32 9 -13
28 18 18 38 14 38 -8z m75 10 c4 -6 -5 -10 -19 -10 -14 0 -26 5 -26 10 0 6 9
10 19 10 11 0 23 -4 26 -10z m-428 -32 c-3 -8 -6 -5 -6 6 -1 11 2 17 5 13 3
-3 4 -12 1 -19z m2414 -65 c-23 -46 -46 -69 -56 -54 -3 6 6 20 20 33 14 12 25
25 25 29 0 4 5 20 12 36 8 21 12 24 15 11 2 -9 -5 -34 -16 -55z m-2041 50 c0
-18 -41 -73 -54 -73 -28 0 -28 22 0 51 26 27 54 38 54 22z m3320 -52 c0 -5 -7
-17 -16 -26 -19 -19 -40 -6 -31 19 7 17 47 22 47 7z m881 -123 c-6 -10 -9 -23
-6 -28 4 -6 -1 -13 -9 -16 -9 -3 -14 -9 -11 -14 2 -4 -7 -18 -20 -30 -14 -13
-25 -29 -25 -36 0 -7 -9 -18 -19 -24 -11 -5 -34 -35 -51 -65 -46 -80 -54 -80
-48 -2 4 46 12 74 27 93 11 15 21 37 21 49 0 31 27 117 44 140 14 19 15 18 31
-18 9 -21 21 -37 28 -34 7 2 16 28 22 58 l9 54 10 -54 c7 -39 6 -59 -3 -73z
m-437 92 c51 -19 29 -71 -46 -108 -20 -11 -33 -24 -33 -36 0 -14 -10 -22 -35
-29 -19 -5 -41 -14 -48 -19 -7 -6 -15 -8 -19 -4 -13 13 34 60 93 93 32 18 58
39 57 45 -1 7 -5 25 -9 41 -7 30 0 33 40 17z m706 -57 c-1 -21 -13 -53 -21
-53 -10 0 -12 43 -2 53 9 9 23 9 23 0z m-913 -49 c9 -25 -13 -40 -26 -16 -10
19 -6 32 11 32 5 0 11 -7 15 -16z m-1941 -45 c-8 -50 -24 -82 -37 -74 -14 10
-11 68 7 93 25 35 37 27 30 -19z m2233 -109 c18 -22 41 -40 52 -40 12 0 23
-10 29 -25 5 -14 14 -25 20 -25 5 0 10 -7 10 -15 0 -10 -10 -15 -29 -15 -37 0
-77 -31 -68 -53 9 -24 44 -21 58 4 17 33 35 8 23 -33 -8 -27 -22 -40 -74 -68
-46 -24 -110 -79 -215 -181 -82 -80 -169 -159 -191 -177 -23 -18 -51 -51 -62
-74 l-21 -43 -1 33 c0 63 -39 94 -70 57 -19 -23 -39 -18 -70 15 l-27 29 -59
-20 c-63 -22 -112 -20 -139 7 -21 22 -13 30 48 48 98 29 187 104 187 159 0 20
20 23 38 5 20 -20 15 63 -5 92 -13 18 -17 47 -17 121 -1 135 13 147 42 38 11
-42 22 -64 32 -64 21 0 52 -64 47 -97 -4 -34 -3 -34 25 -6 19 19 22 20 33 5 7
-10 16 -17 20 -17 8 0 2 81 -11 170 l-7 45 25 -23 25 -23 6 23 6 22 26 -24
c33 -31 33 -60 0 -60 -39 0 -33 -41 10 -74 28 -22 35 -34 35 -61 0 -40 9 -65
23 -65 7 0 8 35 4 108 l-6 107 34 -40 c19 -22 34 -49 32 -60 -2 -23 31 -34 44
-13 5 7 9 45 9 85 0 77 7 88 51 85 23 -2 26 1 22 18 -4 16 0 20 21 20 38 0 41
21 12 79 -14 28 -26 53 -26 56 0 15 20 1 49 -35z m-3649 -7 c0 -27 -3 -34 -11
-26 -7 7 -9 23 -5 37 9 37 16 32 16 -11z m3521 -10 c11 -29 1 -75 -15 -70 -13
4 -35 77 -29 94 7 18 33 3 44 -24z m189 22 c0 -8 -4 -15 -10 -15 -5 0 -10 7
-10 15 0 8 5 15 10 15 6 0 10 -7 10 -15z m-2135 -103 c-5 -14 -7 -14 -15 -2
-13 21 -12 53 2 87 12 28 13 27 16 -21 2 -27 0 -56 -3 -64z m352 61 c-3 -10
-5 -2 -5 17 0 19 2 27 5 18 2 -10 2 -26 0 -35z m213 42 c0 -14 -30 -62 -49
-79 -43 -39 -33 12 12 62 19 21 37 29 37 17z m520 -87 c14 -80 9 -122 -8 -63
-6 22 -14 67 -17 100 -9 81 10 54 25 -37z m-1260 48 c0 -8 -4 -18 -10 -21 -5
-3 -10 3 -10 14 0 12 5 21 10 21 6 0 10 -6 10 -14z m270 -29 c0 -24 -3 -28
-10 -17 -13 20 -13 63 0 55 6 -3 10 -21 10 -38z m-1892 -44 c-3 -44 -5 -48
-28 -48 -31 0 -39 35 -16 71 28 42 48 31 44 -23z m532 36 c0 -7 -11 -22 -25
-35 -27 -25 -34 -64 -11 -64 7 0 19 7 26 15 22 26 43 19 36 -12 -19 -85 -19
-91 7 -125 36 -48 66 -111 73 -155 7 -49 -10 -96 -34 -91 -9 2 -16 9 -15 14 1
5 4 23 8 39 l7 30 -31 -33 c-34 -36 -39 -66 -16 -92 14 -16 14 -23 0 -76 -13
-46 -14 -65 -6 -88 9 -23 14 -26 26 -16 8 7 15 23 15 37 0 26 20 69 54 118 12
17 22 32 23 34 1 2 9 -2 18 -9 13 -10 15 -9 15 8 0 11 6 25 14 31 20 17 26 -5
18 -67 -6 -46 -11 -54 -42 -70 -19 -11 -43 -30 -53 -43 -17 -24 -17 -26 2 -69
11 -25 23 -67 27 -94 l7 -49 15 34 c12 28 18 69 22 152 1 21 33 2 53 -30 l22
-38 3 68 c2 37 6 67 10 67 22 0 52 -182 93 -555 15 -134 12 -129 50 -109 38
19 53 8 35 -26 -62 -115 -76 -144 -76 -160 0 -10 -7 -20 -15 -23 -28 -11 -70
60 -119 200 -60 171 -132 337 -161 372 -12 14 -34 49 -50 76 -15 28 -59 82
-97 120 -64 67 -69 75 -85 145 -10 46 -17 121 -17 196 -1 117 0 122 27 157 15
19 27 43 27 52 0 47 74 175 100 175 11 0 20 -5 20 -11z m2094 -16 c-14 -59
-25 -78 -34 -64 -4 8 -7 19 -5 25 2 6 6 23 9 39 4 15 13 27 21 27 12 0 14 -7
9 -27z m-1043 -40 l54 -58 5 48 c5 47 5 47 28 32 35 -25 80 -125 55 -125 -3 0
-14 7 -24 16 -27 24 -40 9 -33 -37 8 -50 -13 -53 -50 -7 -18 24 -32 32 -51 30
-39 -3 -63 14 -96 66 -44 70 -39 90 27 91 25 1 41 -10 85 -56z m2094 27 c29
-56 13 -113 -19 -68 -21 30 -21 98 0 98 2 0 10 -13 19 -30z m-4170 -91 c4
-129 63 -271 115 -277 77 -9 89 -22 40 -47 -19 -10 -30 -23 -30 -37 0 -41 84
-181 146 -243 33 -33 71 -78 84 -100 13 -22 38 -58 56 -80 18 -22 52 -71 77
-108 42 -65 143 -158 207 -192 14 -7 47 -45 73 -83 51 -75 85 -106 157 -140
82 -40 320 -268 304 -293 -9 -15 -19 -11 -70 29 -121 96 -491 334 -541 348
-55 16 -61 22 -42 41 6 6 8 20 5 31 -8 25 -91 96 -168 145 -31 20 -59 45 -63
56 -3 11 -33 55 -66 97 -138 179 -310 509 -334 644 -13 68 -55 203 -68 216 -3
3 -19 -4 -35 -16 -29 -22 -62 -22 -62 0 0 14 97 61 130 62 22 1 30 7 35 25 5
23 8 24 27 11 18 -12 22 -25 23 -89z m2381 17 c32 -15 55 -32 59 -46 10 -32
-3 -85 -26 -106 -17 -16 -24 -16 -56 -5 -29 11 -40 11 -59 0 -13 -7 -26 -10
-29 -7 -3 2 -10 31 -16 62 -9 51 -6 106 8 130 8 12 58 0 119 -28z m201 -3 c-3
-10 -5 -4 -5 12 0 17 2 24 5 18 2 -7 2 -21 0 -30z m-1467 2 c5 -14 7 -32 3
-41 -6 -15 -7 -15 -20 2 -15 21 -17 64 -3 64 6 0 15 -11 20 -25z m1580 -37
c35 -73 35 -79 15 -118 -21 -40 -46 -38 -85 6 -39 45 -40 95 0 104 19 4 26 13
28 38 2 18 5 32 8 32 3 0 18 -28 34 -62z m526 16 c-4 -9 -9 -15 -11 -12 -3 3
-3 13 1 22 4 9 9 15 11 12 3 -3 3 -13 -1 -22z m-676 -59 c0 -13 -9 -45 -21
-72 -12 -26 -40 -106 -64 -176 -24 -71 -46 -131 -49 -135 -20 -20 21 197 58
308 34 99 76 141 76 75z m480 16 c0 -13 -29 -35 -37 -28 -7 8 15 37 28 37 5 0
9 -4 9 -9z m280 -1 c0 -21 -33 -76 -67 -111 -19 -20 -31 -39 -26 -42 13 -7
207 11 239 24 16 5 39 20 51 31 44 41 44 11 -1 -39 -49 -54 -56 -58 -187 -97
-87 -26 -157 -67 -183 -108 -26 -41 -175 -596 -195 -723 -17 -110 -60 -225
-104 -272 -28 -31 -80 -47 -107 -33 -29 16 -25 31 20 75 52 51 113 145 145
222 28 70 80 321 95 463 5 52 14 170 19 262 9 168 19 211 54 223 95 33 137 54
180 90 54 45 67 52 67 35z m385 -186 c-42 -65 -191 -150 -226 -129 -16 11 17
35 47 35 29 0 87 48 80 67 -3 8 4 17 17 22 34 13 55 51 66 120 15 95 26 94 29
-3 2 -67 -1 -94 -13 -112z m-3197 136 c-2 -8 -10 -15 -18 -15 -17 0 -25 28
-15 53 6 15 8 15 21 -3 8 -11 13 -26 12 -35z m680 29 c-3 -24 -33 -48 -44 -36
-4 4 -2 18 4 32 14 31 45 34 40 4z m442 -19 c0 -21 -15 -27 -25 -10 -7 12 2
30 16 30 5 0 9 -9 9 -20z m1258 -28 c2 -18 8 -32 13 -32 6 0 44 10 85 22 76
22 91 20 81 -6 -7 -18 -138 -86 -164 -86 -22 0 -123 86 -123 105 0 13 71 36
95 31 6 -2 11 -17 13 -34z m-3073 8 c3 -6 -1 -13 -10 -16 -19 -8 -30 0 -20 15
8 14 22 14 30 1z m2084 -138 c-24 -108 -31 -234 -12 -253 6 -6 22 -9 37 -5 40
10 74 92 88 214 7 56 16 102 20 102 4 0 8 -89 8 -199 0 -195 0 -199 25 -235
14 -20 25 -38 25 -40 0 -2 -14 -9 -30 -15 -17 -5 -39 -25 -51 -45 -12 -20 -25
-36 -30 -36 -4 0 -6 28 -3 63 8 77 -6 97 -100 152 -36 21 -68 46 -71 54 -3 9
4 34 15 56 11 22 20 48 20 58 0 40 42 221 58 251 l17 31 3 -28 c2 -15 -7 -72
-19 -125z m-2943 82 c-17 -25 -36 -25 -36 1 0 18 44 49 48 35 2 -6 -3 -22 -12
-36z m2824 -16 c-22 -72 -40 -96 -40 -53 0 31 37 115 50 115 4 0 0 -28 -10
-62z m-1916 15 c-4 -22 1 -34 25 -57 33 -32 38 -57 21 -118 -14 -48 -28 -56
-35 -21 -4 15 -13 40 -21 55 -16 30 -19 105 -4 142 13 34 21 33 14 -1z m843
-75 c-2 -13 -4 -3 -4 22 0 25 2 35 4 23 2 -13 2 -33 0 -45z m2059 26 c9 -37
-3 -168 -21 -234 -8 -30 -20 -91 -26 -134 -13 -101 -30 -135 -68 -136 -18 0
-10 58 33 236 28 113 56 259 56 288 0 18 21 2 26 -20z m-466 -198 c-27 -233
-79 -496 -99 -496 -13 0 -21 38 -21 102 0 31 -5 69 -12 83 -10 21 -8 30 9 53
48 65 59 98 104 297 27 119 35 102 19 -39z m1159 125 c16 -11 7 -16 -42 -25
-29 -5 -43 -16 -62 -46 -30 -47 -47 -52 -35 -11 13 46 30 72 53 81 29 11 68
12 86 1z m1618 -38 c-3 -10 -5 -4 -5 12 0 17 2 24 5 18 2 -7 2 -21 0 -30z
m-3352 -38 c-11 -75 -60 -228 -74 -233 -11 -4 -12 9 -8 59 13 141 39 219 74
219 12 0 14 -9 8 -45z m2755 30 c10 -12 9 -16 -5 -21 -16 -6 -34 9 -35 29 0
13 27 8 40 -8z m-3730 -58 c0 -24 -3 -28 -10 -17 -13 20 -13 63 0 55 6 -3 10
-21 10 -38z m4218 6 c-4 -34 -28 -43 -28 -10 0 25 7 37 22 37 5 0 8 -12 6 -27z
m-4574 -55 c7 -68 1 -83 -20 -54 -14 20 -20 97 -7 109 15 15 20 4 27 -55z
m2906 -13 c0 -19 -33 -65 -50 -70 -48 -15 -54 27 -7 55 31 19 57 26 57 15z
m140 -34 c0 -12 -20 -25 -27 -18 -7 7 6 27 18 27 5 0 9 -4 9 -9z m926 -16 c6
-24 34 -36 34 -15 0 6 5 10 10 10 19 0 10 -37 -14 -60 -32 -29 -53 -21 -62 24
-10 59 18 96 32 41z m724 13 c0 -7 -4 -19 -9 -27 -11 -17 -25 3 -17 24 7 18
26 20 26 3z m-4482 -60 c2 -48 6 -58 21 -58 24 0 34 -14 56 -76 10 -28 30 -68
46 -90 15 -21 40 -59 56 -84 15 -25 75 -117 133 -205 145 -218 158 -240 136
-228 -27 15 -127 133 -235 278 -126 167 -171 235 -240 359 -32 57 -63 102 -73
104 -9 2 -30 -7 -47 -19 -32 -24 -65 -20 -59 8 2 9 28 30 58 45 41 22 65 28
100 26 l45 -3 3 -57z m-1068 39 c0 -7 -7 -22 -15 -33 -14 -18 -14 -18 -15 7 0
14 3 29 7 32 11 11 23 8 23 -6z m4141 0 c-1 -12 -15 -9 -19 4 -3 6 1 10 8 8 6
-3 11 -8 11 -12z m149 -46 c0 -44 -8 -71 -21 -71 -10 0 -12 70 -3 94 11 29 24
17 24 -23z m-1422 -295 c-7 -360 -4 -395 41 -439 l31 -32 21 22 c13 13 33 63
51 129 16 60 34 114 40 122 20 24 29 -11 18 -69 -6 -30 -15 -101 -20 -158 -11
-125 -25 -149 -65 -111 l-24 23 -38 -25 c-56 -37 -74 -40 -110 -19 -29 18 -32
24 -39 98 -11 118 3 375 25 468 17 71 51 273 51 304 0 7 5 9 12 5 8 -5 10 -89
6 -318z m2582 294 c0 -20 -25 -38 -36 -27 -8 7 15 47 26 47 6 0 10 -9 10 -20z
m-1439 -123 c-14 -71 -40 -120 -64 -125 -24 -5 -21 25 8 73 14 22 25 53 25 68
0 40 19 72 33 58 8 -8 8 -28 -2 -74z m-4211 64 c0 -5 -7 -14 -15 -21 -16 -14
-18 -10 -9 14 6 17 24 22 24 7z m3148 -10 c3 -8 -1 -12 -9 -9 -7 2 -15 10 -17
17 -3 8 1 12 9 9 7 -2 15 -10 17 -17z m732 -46 c0 -48 2 -55 20 -55 30 0 26
-48 -16 -179 -43 -136 -71 -264 -80 -358 -6 -64 -5 -73 19 -108 37 -54 25 -72
-43 -66 -42 4 -50 19 -50 90 1 146 39 443 76 590 36 143 74 187 74 86z m494
-42 c15 -59 15 -67 1 -89 -8 -13 -20 -24 -25 -24 -14 0 -30 69 -30 136 0 103
26 92 54 -23z m1386 65 c0 -30 -15 -52 -28 -44 -8 4 -8 16 0 36 12 35 28 40
28 8z m-2170 -36 c0 -30 -16 -52 -37 -52 -18 0 -16 31 3 58 21 30 34 28 34 -6z
m1425 -12 c0 -7 -6 -15 -12 -17 -8 -3 -13 4 -13 17 0 13 5 20 13 18 6 -3 12
-11 12 -18z m-146 -64 c17 -35 38 -69 46 -76 13 -11 15 -8 15 17 0 16 -7 39
-16 51 -14 21 -14 25 0 47 19 29 24 30 54 9 72 -50 69 -189 -10 -349 -78 -159
-182 -250 -578 -510 -107 -70 -212 -143 -234 -162 -27 -25 -41 -32 -49 -24
-16 16 17 79 75 148 27 32 65 91 84 131 22 46 40 72 51 72 9 0 25 7 35 17 10
9 21 14 24 10 3 -3 -15 -28 -41 -56 -31 -33 -42 -51 -32 -51 9 0 22 8 29 18 7
9 25 23 40 29 53 24 114 134 134 243 l8 45 6 -68 c8 -77 18 -94 48 -78 25 13
32 30 46 109 12 68 29 86 34 37 4 -38 15 -49 41 -40 46 14 63 89 37 162 l-14
40 43 -5 c40 -4 44 -2 59 27 9 17 21 31 26 31 15 0 12 54 -5 76 -15 19 -22
144 -8 157 14 15 23 5 52 -57z m-842 10 c14 -43 10 -73 -21 -131 l-21 -40 -3
75 c-5 133 16 179 45 96z m-3584 -38 c-4 -35 -8 -89 -8 -122 0 -55 2 -60 39
-92 22 -19 45 -34 51 -34 19 0 65 -40 65 -56 0 -8 -11 -19 -25 -24 -33 -12
-32 -34 4 -123 15 -40 32 -91 36 -115 4 -26 20 -60 41 -85 48 -60 93 -136 104
-179 8 -27 16 -38 30 -38 46 0 129 -105 200 -252 22 -45 43 -97 46 -117 4 -20
15 -49 26 -66 18 -30 24 -75 10 -75 -4 0 -30 23 -57 50 -27 28 -57 50 -68 50
-22 0 -114 84 -123 114 -12 39 -25 48 -44 31 -16 -15 -19 -14 -39 11 -11 15
-21 30 -21 34 0 14 -227 238 -257 254 -30 15 -32 20 -35 73 -3 52 -6 58 -26
61 -18 3 -23 -2 -28 -27 -8 -36 -16 -39 -35 -11 -10 14 -32 23 -73 30 -33 5
-63 13 -67 17 -11 13 8 139 27 175 10 18 19 27 21 21 7 -19 21 -16 33 7 15 28
-2 55 -50 80 -71 36 -42 73 32 40 68 -30 78 -9 23 51 -21 24 -35 49 -35 66 0
26 0 26 -20 8 -20 -18 -21 -18 -48 8 -16 15 -36 27 -46 27 -10 0 -20 9 -23 20
-3 11 -14 20 -24 20 -11 0 -19 4 -19 8 0 24 89 79 104 65 3 -4 6 -17 6 -30 0
-27 18 -31 26 -5 3 9 10 28 16 42 l10 25 29 -34 29 -35 31 30 c17 16 51 59 76
97 24 37 49 67 55 67 7 0 7 -21 1 -62z m5950 28 c7 -21 6 -30 -4 -36 -20 -13
-29 -2 -29 36 0 42 19 42 33 0z m-5183 -13 c-1 -27 -1 -27 -15 -9 -19 25 -19
36 0 36 10 0 15 -10 15 -27z m4440 18 c0 -14 -18 -23 -30 -16 -6 4 -8 11 -5
16 8 12 35 12 35 0z m-3210 -52 c0 -62 21 -181 37 -213 31 -60 -11 -101 -54
-53 -33 36 -43 62 -43 114 0 52 38 193 51 193 5 0 9 -18 9 -41z m-2522 19 c17
-17 15 -26 -7 -38 -20 -10 -51 -4 -51 10 0 11 29 40 39 40 4 0 12 -5 19 -12z
m5524 -20 c-9 -9 -12 -7 -12 12 0 19 3 21 12 12 9 -9 9 -15 0 -24z m-4143 -51
c13 -14 21 -32 19 -39 -5 -14 -78 55 -78 73 0 14 30 -4 59 -34z m-2023 -84
c-3 -65 -11 -122 -17 -128 -9 -7 -10 22 -6 108 6 112 10 137 24 137 3 0 3 -53
-1 -117z m5473 58 c6 -19 11 -48 11 -65 l-1 -31 -14 26 c-17 32 -35 106 -27
114 8 8 18 -6 31 -44z m-3482 -27 c55 -42 75 -63 67 -76 -7 -11 -31 3 -86 52
-46 40 -59 60 -39 60 5 0 31 -16 58 -36z m1357 14 c3 -13 6 -57 6 -97 0 -65 4
-80 27 -113 22 -33 24 -42 15 -63 -15 -33 -57 -43 -82 -20 -46 42 -51 186 -9
271 23 49 34 54 43 22z m2044 -72 c-6 -73 -30 -126 -57 -126 -11 0 -22 6 -25
13 -3 8 -11 4 -26 -12 -24 -27 -27 -26 -40 18 -9 33 -10 33 38 47 6 2 12 17
12 34 0 23 6 33 24 40 14 5 32 21 42 34 25 39 37 21 32 -48z m-4662 -11 c102
-83 114 -95 88 -95 -28 0 -104 50 -114 74 -5 15 -20 25 -39 29 -31 6 -71 39
-71 57 0 27 51 3 136 -65z m690 34 c6 -19 21 -38 33 -44 25 -12 27 -31 4 -44
-14 -8 -15 -13 -5 -35 15 -34 29 -33 37 4 7 30 25 42 25 17 0 -25 30 -242 36
-261 6 -19 7 -18 23 3 15 19 19 20 29 8 20 -23 27 -77 10 -77 -8 0 -20 6 -26
12 -10 10 -17 10 -34 -1 -25 -15 -38 -2 -38 41 0 35 -18 81 -28 74 -5 -3 -7
-20 -5 -38 7 -60 -22 -6 -46 86 -17 64 -28 89 -47 101 -28 18 -30 28 -7 50 14
15 15 26 7 76 -6 33 -8 62 -5 64 11 12 27 -4 37 -36z m4925 -28 c-21 -41 -41
-61 -41 -41 0 16 28 81 43 98 22 27 20 -12 -2 -57z m-234 27 c-3 -7 -5 -2 -5
12 0 14 2 19 5 13 2 -7 2 -19 0 -25z m-2448 -14 c-6 -8 -15 -14 -20 -14 -14 0
-11 28 4 33 20 7 29 -4 16 -19z m3036 15 c4 -6 -23 -41 -59 -79 -64 -66 -81
-100 -51 -100 8 0 15 -4 15 -9 0 -24 -14 -41 -34 -41 -33 0 -49 -20 -29 -35
23 -17 7 -35 -30 -35 -20 0 -39 -8 -50 -20 -9 -11 -23 -20 -30 -20 -7 0 -37
-16 -66 -35 -30 -19 -58 -32 -63 -29 -13 8 7 38 92 129 44 47 80 91 80 96 0
17 83 101 144 146 62 46 71 49 81 32z m-1669 -24 c9 -23 -133 -253 -349 -565
-209 -302 -228 -320 -324 -320 -42 0 -44 1 -63 46 -26 61 -46 54 -42 -14 2
-32 0 -52 -7 -52 -15 0 -72 125 -78 171 -5 31 -2 39 10 39 18 0 29 -24 20 -47
-6 -16 -4 -16 15 1 20 17 22 17 28 2 9 -24 33 -19 46 9 6 14 22 28 35 31 48
13 107 -58 67 -81 -10 -5 -29 -21 -42 -33 -23 -22 -23 -25 -9 -40 13 -13 21
-13 41 -4 40 18 59 66 51 128 -6 51 -5 54 19 65 30 14 56 -1 56 -32 0 -40 33
-12 68 56 11 22 42 69 69 104 26 35 54 75 62 90 23 43 172 272 212 326 20 28
46 69 58 93 22 42 47 55 57 27z m-1446 -15 c0 -21 -15 -27 -25 -10 -7 12 2 30
16 30 5 0 9 -9 9 -20z m-4442 -2 c-6 -18 -28 -21 -28 -4 0 9 7 16 16 16 9 0
14 -5 12 -12z m6917 -39 c9 -14 -3 -59 -15 -59 -5 0 -12 11 -16 24 -6 26 1 46
16 46 5 0 12 -5 15 -11z m235 -49 c0 -12 -28 -25 -36 -17 -9 9 6 27 22 27 8 0
14 -5 14 -10z m-2763 -26 c2 -5 -3 -19 -11 -29 -14 -19 -15 -19 -21 -2 -4 9
-4 24 -1 33 6 16 27 15 33 -2z m89 -49 c7 -30 -4 -129 -18 -161 -6 -12 -23
-28 -39 -35 -40 -16 -79 9 -79 51 0 17 4 30 10 30 5 0 16 16 24 35 20 47 65
105 82 105 7 0 16 -11 20 -25z m2549 -15 c10 -16 -16 -43 -28 -31 -11 11 -2
41 12 41 5 0 13 -5 16 -10z m-985 -40 c0 -10 -4 -22 -10 -25 -6 -4 -10 7 -10
25 0 18 4 29 10 25 6 -3 10 -15 10 -25z m-5253 -2 c-3 -8 -6 -5 -6 6 -1 11 2
17 5 13 3 -3 4 -12 1 -19z m923 7 c27 -14 48 -50 37 -62 -13 -13 -101 53 -91
68 7 13 21 11 54 -6z m566 -16 c10 -17 -13 -36 -27 -22 -12 12 -4 33 11 33 5
0 12 -5 16 -11z m3004 -27 c0 -48 -26 -136 -44 -151 -12 -10 -13 1 -9 71 6 89
15 118 38 118 11 0 15 -11 15 -38z m-1600 -157 c-6 -19 -16 -35 -21 -35 -10 0
-2 51 14 90 l11 25 4 -23 c2 -12 -2 -38 -8 -57z m3186 -10 c-3 -9 -11 -13 -16
-10 -8 5 -7 11 1 21 14 18 24 11 15 -11z m-3074 -38 c-4 -47 -3 -49 18 -42 21
7 22 5 16 -19 -14 -58 -19 -116 -8 -116 6 0 21 19 34 42 26 47 48 60 48 29 0
-25 -38 -129 -50 -136 -13 -8 -139 153 -145 188 -4 18 -1 46 6 62 l12 30 6
-29 c3 -16 12 -31 19 -34 15 -5 16 13 2 39 -14 25 -4 41 23 37 20 -3 22 -8 19
-51z m-1047 -363 c52 -159 95 -295 95 -302 0 -30 -27 -2 -57 58 -41 86 -162
469 -169 540 l-6 55 21 -31 c12 -17 64 -161 116 -320z m-175 271 c0 -8 -4 -15
-10 -15 -5 0 -10 7 -10 15 0 8 5 15 10 15 6 0 10 -7 10 -15z m-54 -40 c16 -38
19 -75 6 -75 -9 0 -32 67 -32 94 0 26 10 19 26 -19z m2092 -95 c35 0 47 9 60
45 l10 30 1 -36 c1 -20 8 -42 16 -49 15 -12 18 -5 27 55 7 44 23 6 20 -46 l-4
-56 71 -82 c69 -80 111 -146 111 -173 -1 -16 -54 42 -98 105 -48 70 -73 42
-32 -36 16 -29 17 -37 6 -37 -20 0 -52 43 -67 88 -6 20 -19 49 -27 65 -18 30
-46 37 -39 10 3 -10 8 -36 12 -58 6 -35 5 -38 -8 -25 -26 26 -117 193 -123
226 -4 21 0 43 13 65 l18 34 3 -62 c3 -61 4 -63 30 -63z m-969 68 c67 -50 215
-178 254 -220 41 -43 69 -33 110 40 l32 57 3 -38 c2 -27 7 -37 17 -34 15 6 25
-22 25 -73 0 -44 13 -30 35 40 27 88 28 88 38 20 13 -102 12 -152 -7 -188
l-17 -32 -106 72 c-206 142 -453 353 -453 388 0 17 11 12 69 -32z m839 -33
c14 -31 16 -75 3 -75 -10 0 -31 54 -31 81 0 27 15 23 28 -6z m-1049 -40 c0 -5
-6 -1 -14 9 -8 11 -15 27 -15 35 1 17 29 -26 29 -44z m1402 22 c-16 -16 -26 0
-10 19 9 11 15 12 17 4 2 -6 -1 -17 -7 -23z m109 14 c15 -30 12 -36 -9 -17
-13 12 -21 14 -26 6 -11 -17 3 -43 20 -36 19 7 19 -3 0 -28 -19 -26 -35 -11
-35 33 0 54 29 79 50 42z m-2090 -53 c40 -94 211 -580 207 -591 -4 -14 -100
173 -134 261 -76 198 -125 382 -103 382 4 0 18 -24 30 -52z m1137 -29 c-14
-83 -31 -97 -35 -29 -2 32 4 55 18 79 12 18 23 31 25 29 2 -2 -1 -38 -8 -79z
m-1342 -42 c17 -56 20 -117 6 -117 -14 0 -42 81 -49 140 -5 50 -4 54 11 41 9
-7 24 -36 32 -64z m-1336 6 c-6 -16 -29 -53 -52 -83 -48 -64 -226 -250 -239
-250 -26 0 88 159 202 283 75 81 108 99 89 50z m3572 -20 c70 -93 80 -113 59
-113 -13 0 -120 131 -120 147 0 27 27 12 61 -34z m-345 12 c23 -35 13 -54 -14
-27 -23 23 -30 52 -12 52 5 0 17 -11 26 -25z m458 -6 c42 -49 60 -89 47 -102
-18 -18 -43 3 -73 62 -38 74 -22 98 26 40z m-554 -60 c0 -21 -16 -26 -23 -6
-6 17 3 38 14 31 5 -3 9 -14 9 -25z m-112 -103 c-5 -63 -21 -101 -46 -111 -11
-4 -13 0 -8 17 4 13 11 50 17 83 14 80 17 87 30 79 8 -4 10 -28 7 -68z m-1328
27 c7 -21 48 -119 91 -219 76 -174 92 -223 68 -208 -31 19 -179 383 -179 440
0 34 7 30 20 -13z m2445 -20 c-11 -46 -44 -108 -70 -133 l-25 -23 0 22 c0 38
70 161 92 161 6 0 8 -11 3 -27z m-2268 -56 c6 -27 26 -70 42 -96 17 -26 31
-53 31 -60 0 -6 9 -29 19 -49 11 -21 23 -56 27 -77 7 -37 6 -39 -10 -26 -31
26 -135 252 -151 329 -6 29 -5 33 12 30 12 -2 22 -18 30 -51z m1363 -8 c0 -62
-19 -125 -46 -150 -13 -12 -26 -20 -29 -17 -3 2 6 31 19 64 13 32 27 78 31
102 9 54 25 55 25 1z m810 15 c-50 -130 -196 -265 -245 -224 -20 17 -4 66 21
62 23 -3 60 33 66 63 2 14 12 20 33 21 22 1 40 13 73 53 49 56 67 65 52 25z
m-692 -90 c-3 -48 -10 -71 -32 -103 -16 -23 -31 -40 -33 -38 -2 3 11 58 29
123 34 122 43 127 36 18z m422 23 c0 -29 -7 -76 -15 -104 -15 -51 -48 -92 -59
-74 -6 9 38 203 50 223 14 22 24 2 24 -45z m-354 -51 c-11 -79 -25 -123 -41
-130 -26 -10 -29 22 -6 83 11 32 22 71 23 87 2 40 9 50 21 29 5 -10 6 -40 3
-69z m284 18 c0 -16 -7 -39 -15 -50 -13 -17 -14 -14 -15 37 0 31 3 59 7 62 10
11 23 -15 23 -49z m-657 9 l-6 -38 36 28 c43 32 57 34 57 6 0 -27 -53 -79 -81
-79 -29 0 -59 27 -59 54 0 15 41 63 57 66 1 0 -1 -17 -4 -37z m1737 -6 c0 -19
-27 -53 -36 -45 -9 10 12 58 26 58 5 0 10 -6 10 -13z m-2704 -69 c36 -70 94
-223 94 -245 -1 -54 -108 159 -135 270 -12 46 12 31 41 -25z m1408 -2 c-3 -14
-10 -26 -15 -26 -10 0 -12 31 -3 55 10 26 26 1 18 -29z m66 23 c0 -26 -40
-119 -51 -119 -5 0 -9 6 -9 13 0 15 27 104 35 117 11 17 25 11 25 -11z m-7620
-9 c0 -11 -4 -20 -10 -20 -5 0 -10 9 -10 20 0 11 5 20 10 20 6 0 10 -9 10 -20z
m6057 -12 c-3 -7 -5 -2 -5 12 0 14 2 19 5 13 2 -7 2 -19 0 -25z m1622 -24
c-12 -28 -13 -28 -17 -6 -5 32 6 58 19 45 6 -6 6 -19 -2 -39z m-372 -6 c-3 -8
-6 -5 -6 6 -1 11 2 17 5 13 3 -3 4 -12 1 -19z m1263 6 c0 -19 -57 -79 -167
-175 -158 -138 -232 -193 -313 -234 -36 -18 -98 -58 -138 -89 -41 -31 -86 -59
-100 -62 -15 -4 -41 -15 -58 -25 -27 -16 -33 -17 -50 -5 -18 14 -18 15 11 25
46 17 75 34 75 43 0 13 -18 10 -112 -23 -49 -17 -92 -28 -95 -25 -7 6 53 43
167 101 197 100 313 173 508 322 159 121 209 153 244 153 15 0 28 -3 28 -6z
m99 -11 c-8 -10 -87 -97 -176 -193 -141 -153 -168 -178 -215 -196 -29 -12 -79
-33 -110 -47 -32 -15 -58 -23 -58 -18 0 5 44 39 97 77 109 77 175 132 343 288
105 97 154 133 119 89z m73 -40 c-56 -67 -122 -129 -122 -116 0 14 151 175
158 169 2 -3 -14 -27 -36 -53z m-1012 23 c0 -16 -18 -31 -27 -22 -8 8 5 36 17
36 5 0 10 -6 10 -14z m-202 -33 c-4 -32 -38 -46 -38 -16 0 20 18 43 33 43 4 0
7 -12 5 -27z m-6650 5 c-6 -16 -71 -36 -117 -37 -30 -1 -32 1 -20 15 19 23 47
33 97 33 31 1 42 -3 40 -11z m268 -3 c-11 -8 -31 -15 -45 -15 l-26 1 25 14
c14 8 34 14 45 14 20 0 20 0 1 -14z m-113 -32 c-7 -2 -19 -2 -25 0 -7 3 -2 5
12 5 14 0 19 -2 13 -5z m4966 -51 c6 -18 6 -32 1 -32 -15 0 -40 43 -40 69 0
23 2 24 15 10 8 -8 19 -29 24 -47z m-5094 38 c4 -6 -5 -10 -20 -10 -15 0 -24
4 -20 10 3 6 12 10 20 10 8 0 17 -4 20 -10z m5415 -72 c24 -55 41 -161 22
-143 -10 11 -62 162 -62 183 0 28 19 9 40 -40z m-2796 -12 c8 -18 19 -37 25
-40 16 -10 14 -43 -5 -71 -22 -34 -40 -31 -64 7 -17 28 -18 35 -6 47 11 10 12
20 5 39 -21 56 22 73 45 18z m2631 -4 c-9 -9 -35 8 -35 24 0 16 2 16 20 -1 11
-10 18 -20 15 -23z m-3995 -10 c0 -11 -36 -28 -72 -36 -41 -9 -34 9 10 27 42
18 62 21 62 9z m6430 -12 c0 -5 -15 -17 -32 -26 l-33 -17 24 27 c25 27 41 33
41 16z m-2551 -26 c3 -16 1 -17 -13 -5 -19 16 -21 34 -3 29 6 -3 14 -13 16
-24z m-3569 -33 c0 -12 -20 -25 -27 -18 -7 7 6 27 18 27 5 0 9 -4 9 -9z m158
-23 c-6 -16 -36 -34 -44 -25 -9 9 15 37 33 37 8 0 13 -5 11 -12z m-236 -26
c11 -9 29 -12 50 -9 18 3 53 8 78 12 l45 6 -38 -21 c-50 -28 -166 -57 -258
-65 -178 -16 -327 -54 -464 -120 -77 -37 -183 -70 -193 -61 -1 2 20 18 47 35
56 36 76 57 76 80 0 21 42 41 90 41 l40 0 -25 -20 c-14 -11 -20 -20 -15 -20 6
0 102 32 215 71 299 103 312 106 352 71z m-1032 -1 c0 -6 -5 -13 -10 -16 -15
-9 -43 3 -35 15 8 13 45 13 45 1z m8121 -97 c10 -12 10 -19 1 -32 -6 -10 -29
-46 -51 -82 -22 -36 -49 -73 -60 -82 -12 -10 -21 -27 -21 -39 0 -33 -19 -59
-43 -59 -21 1 -21 1 -4 15 11 7 23 33 28 57 11 47 81 192 106 220 20 22 27 22
44 2z m-7991 -77 c0 -15 8 -28 23 -34 19 -9 12 -12 -50 -23 -59 -11 -75 -11
-88 0 -18 15 -7 33 40 62 43 26 75 24 75 -5z m3323 -32 c1 -5 -18 -11 -43 -13
-42 -2 -44 -1 -25 13 21 17 64 17 68 0z m2726 -94 c19 -12 4 -31 -25 -31 -35
0 -30 34 6 39 3 0 11 -3 19 -8z m-6523 -58 c21 -8 17 -22 -10 -34 -31 -14 -63
-6 -101 27 l-30 26 63 -7 c35 -3 70 -9 78 -12z m6714 8 c0 -12 -29 -23 -42
-15 -6 4 -5 10 3 15 18 11 39 11 39 0z m247 -18 c4 -10 -2 -23 -18 -35 -24
-20 -42 -7 -20 15 7 7 5 14 -7 23 -15 12 -14 13 11 14 17 0 30 -7 34 -17z
m-5147 -47 c-13 -13 -35 7 -25 24 5 8 11 8 21 -1 10 -8 12 -15 4 -23z m4976 2
c8 -13 -30 -48 -52 -48 -20 0 -17 16 8 40 25 23 34 25 44 8z m-5186 -28 c-10
-20 -56 -38 -67 -27 -5 6 55 47 70 47 4 0 3 -9 -3 -20z m4970 5 c11 -13 8 -15
-14 -15 -25 0 -33 10 -19 23 10 11 19 8 33 -8z m100 -43 c0 -12 -51 -34 -59
-27 -7 8 28 35 46 35 7 0 13 -4 13 -8z m-290 -26 c0 -8 -4 -17 -9 -21 -12 -7
-24 12 -16 25 9 15 25 12 25 -4z m-6012 -23 c5 -18 -23 -16 -39 3 -11 14 -10
15 11 12 13 -1 25 -9 28 -15z"/>
<path d="M7868 7698 c-16 -5 -28 -14 -28 -19 0 -11 50 -12 69 0 7 5 10 14 7
20 -8 13 -12 13 -48 -1z"/>
<path d="M8143 7698 c-67 -12 -72 -33 -7 -23 26 3 53 9 60 12 14 5 20 24 7 22
-5 -1 -32 -6 -60 -11z"/>
<path d="M9012 7671 c2 -7 7 -12 11 -12 12 1 9 15 -3 20 -7 2 -11 -2 -8 -8z"/>
<path d="M7688 7658 c-16 -5 -28 -14 -28 -20 0 -15 61 -1 80 17 13 13 12 15
-5 14 -11 0 -32 -5 -47 -11z"/>
<path d="M8003 7663 c9 -2 23 -2 30 0 6 3 -1 5 -18 5 -16 0 -22 -2 -12 -5z"/>
<path d="M8900 7656 c0 -10 9 -16 21 -16 24 0 21 23 -4 28 -10 2 -17 -3 -17
-12z"/>
<path d="M7453 7645 c-3 -9 -3 -18 0 -21 8 -9 77 16 77 27 0 16 -70 10 -77 -6z"/>
<path d="M8992 7599 c2 -7 10 -15 17 -17 8 -3 12 1 9 9 -2 7 -10 15 -17 17 -8
3 -12 -1 -9 -9z"/>
<path d="M7790 7566 c-63 -18 -156 -59 -142 -64 12 -4 159 40 207 62 29 14 29
14 5 14 -14 0 -45 -5 -70 -12z"/>
<path d="M9440 7518 c0 -18 20 -38 38 -38 19 0 10 20 -16 38 -19 12 -22 12
-22 0z"/>
<path d="M9800 7510 c0 -13 5 -20 13 -17 6 2 12 10 12 17 0 7 -6 15 -12 18 -8
2 -13 -5 -13 -18z"/>
<path d="M9522 7509 c2 -7 10 -15 17 -17 8 -3 12 1 9 9 -2 7 -10 15 -17 17 -8
3 -12 -1 -9 -9z"/>
<path d="M8930 7435 c18 -22 171 -115 188 -115 30 0 2 26 -83 77 -89 54 -130
69 -105 38z"/>
<path d="M9522 7439 c5 -17 48 -25 48 -10 0 6 -4 11 -9 11 -5 0 -17 3 -27 7
-12 4 -15 2 -12 -8z"/>
<path d="M8664 7412 c9 -15 131 -87 181 -107 39 -16 40 -15 17 2 -33 27 -206
118 -198 105z"/>
<path d="M9520 7374 c0 -16 23 -44 36 -44 11 0 12 4 5 19 -10 17 -41 37 -41
25z"/>
<path d="M8246 7188 c-11 -6 -30 -11 -43 -12 -13 -1 -22 -5 -21 -11 4 -15 58
-9 76 9 20 20 13 28 -12 14z"/>
<path d="M7257 5154 c-4 -4 -7 -14 -7 -23 0 -11 3 -12 11 -4 6 6 10 16 7 23
-2 6 -7 8 -11 4z"/>
<path d="M8352 4718 c-17 -67 -27 -182 -15 -175 18 11 51 217 35 217 -5 0 -14
-19 -20 -42z"/>
<path d="M4590 3664 c0 -14 3 -14 15 -4 8 7 15 14 15 16 0 2 -7 4 -15 4 -8 0
-15 -7 -15 -16z"/>
<path d="M4311 3409 c-41 -51 -47 -87 -9 -52 22 20 62 92 55 99 -3 3 -23 -18
-46 -47z"/>
<path d="M4385 3401 c-6 -11 9 -23 19 -14 9 9 7 23 -3 23 -6 0 -12 -4 -16 -9z"/>
<path d="M4326 3308 c-17 -24 -22 -68 -8 -68 8 0 52 71 52 84 0 15 -30 4 -44
-16z"/>
<path d="M4246 3305 c-3 -9 0 -15 9 -15 8 0 15 7 15 15 0 8 -4 15 -9 15 -5 0
-11 -7 -15 -15z"/>
<path d="M4484 3275 c-9 -22 1 -29 15 -11 8 10 9 16 1 21 -5 3 -13 -1 -16 -10z"/>
<path d="M4261 3183 c-25 -30 -21 -38 12 -29 25 6 42 31 31 47 -9 15 -22 10
-43 -18z"/>
<path d="M4290 3106 c-22 -37 -19 -66 5 -46 14 12 30 68 22 76 -3 3 -15 -11
-27 -30z"/>
<path d="M4245 2990 c-15 -17 -16 -20 -3 -20 9 0 19 7 22 16 10 25 1 27 -19 4z"/>
<path d="M6933 3886 c-28 -35 -29 -46 -3 -46 23 0 33 18 28 52 -3 23 -3 22
-25 -6z"/>
<path d="M7231 1534 c0 -11 3 -14 6 -6 3 7 2 16 -1 19 -3 4 -6 -2 -5 -13z"/>
<path d="M9230 2922 c0 -33 4 -51 10 -47 13 8 13 65 0 85 -7 11 -10 0 -10 -38z"/>
<path d="M6180 3053 c0 -30 10 -54 21 -47 13 8 11 28 -6 50 -14 19 -14 19 -15
-3z"/>
<path d="M8273 2852 c-7 -4 -9 -24 -6 -55 l6 -47 23 25 c13 14 34 25 49 25 30
0 43 24 25 45 -13 16 -76 20 -97 7z"/>
<path d="M5270 5043 c-161 -55 -273 -104 -285 -122 -8 -13 73 11 179 54 94 38
146 63 146 70 0 6 -20 5 -40 -2z"/>
<path d="M4655 4906 c-63 -20 -89 -36 -76 -49 7 -7 16 -6 28 5 10 9 38 22 63
29 25 7 49 16 55 21 13 12 -23 9 -70 -6z"/>
<path d="M5174 4875 c-17 -13 -17 -14 -2 -15 9 0 20 5 23 11 11 17 0 20 -21 4z"/>
<path d="M4495 4830 c-16 -11 -26 -20 -22 -20 11 0 67 29 67 35 0 10 -16 4
-45 -15z"/>
<path d="M3865 4780 c-8 -13 5 -13 25 0 13 8 13 10 -2 10 -9 0 -20 -4 -23 -10z"/>
<path d="M4290 4740 c-51 -20 -68 -45 -23 -34 36 8 88 40 77 47 -5 2 -29 -3
-54 -13z"/>
<path d="M4000 4705 c0 -8 4 -15 9 -15 5 0 11 7 15 15 3 9 0 15 -9 15 -8 0
-15 -7 -15 -15z"/>
<path d="M4474 4695 c-17 -13 -17 -14 -2 -15 9 0 20 5 23 11 11 17 0 20 -21 4z"/>
<path d="M4133 4663 c-7 -2 -13 -8 -13 -13 0 -10 38 -1 46 11 6 10 -13 11 -33
2z"/>
<path d="M4000 4595 c-35 -20 -71 -42 -79 -50 -14 -13 -13 -15 5 -15 17 0 116
61 149 91 19 19 -12 8 -75 -26z"/>
<path d="M4858 4612 c-26 -15 -37 -32 -22 -32 9 0 74 41 74 46 0 9 -27 2 -52
-14z"/>
<path d="M4703 4545 c-77 -41 -108 -65 -81 -65 22 0 178 79 178 91 0 17 -28 9
-97 -26z"/>
<path d="M4121 4522 c-70 -35 -100 -62 -69 -62 13 0 148 86 148 95 0 7 3 8
-79 -33z"/>
<path d="M4255 4463 c-37 -19 -65 -43 -65 -55 0 -11 47 14 85 46 34 29 25 33
-20 9z"/>
<path d="M4511 4439 c-35 -17 -61 -33 -57 -36 9 -9 92 26 111 47 22 24 24 25
-54 -11z"/>
<path d="M3061 4439 c-18 -6 -31 -13 -28 -16 9 -8 75 6 82 17 7 12 -9 11 -54
-1z"/>
<path d="M3290 4223 c-263 -45 -477 -103 -632 -171 -74 -33 -158 -67 -186 -76
-29 -8 -67 -26 -85 -40 -46 -35 -184 -99 -197 -91 -21 13 14 38 135 97 l120
58 -60 -6 -60 -5 28 25 c17 16 40 26 58 26 16 0 29 5 29 10 0 6 -9 10 -19 10
-32 0 -34 18 -4 33 15 8 71 29 123 48 77 28 89 35 65 37 -31 3 -60 -5 -277
-81 -143 -50 -306 -142 -286 -162 2 -2 13 1 24 8 136 78 290 140 270 109 -3
-5 -38 -28 -78 -52 -160 -95 -418 -272 -452 -311 -32 -35 -37 -46 -34 -82 2
-30 8 -43 20 -45 19 -4 98 64 98 84 0 8 10 14 25 14 29 0 104 36 232 112 279
164 923 422 923 369 0 -12 -92 -61 -113 -61 -14 0 -205 -94 -216 -106 -28 -31
294 77 409 137 33 17 99 38 152 49 106 21 128 28 128 41 0 23 -72 34 -140 22z"/>
<path d="M2626 4135 c-50 -18 -68 -35 -37 -35 25 0 81 29 81 42 0 10 4 10 -44
-7z"/>
<path d="M3295 4135 c-29 -13 -29 -13 -5 -14 14 0 39 6 55 14 29 13 29 13 5
14 -14 0 -38 -6 -55 -14z"/>
<path d="M2495 4070 c-3 -5 1 -10 9 -10 9 0 16 5 16 10 0 6 -4 10 -9 10 -6 0
-13 -4 -16 -10z"/>
<path d="M1945 3989 c-28 -13 -51 -17 -77 -13 -48 7 -142 -40 -135 -67 4 -13
-4 -18 -34 -23 -50 -8 -50 -29 -1 -44 21 -7 47 -21 57 -32 24 -26 37 -25 72 4
16 14 41 28 56 31 15 4 30 12 34 18 4 6 -3 8 -21 3 l-26 -7 30 42 c16 23 30
48 30 56 0 7 8 13 18 13 9 0 28 9 42 20 32 25 8 25 -45 -1z"/>
<path d="M3255 3949 c-11 -17 0 -20 21 -4 17 13 17 14 2 15 -9 0 -20 -5 -23
-11z"/>
<path d="M2800 3910 c-18 -14 -21 -20 -9 -20 25 0 79 21 79 31 0 16 -44 9 -70
-11z"/>
<path d="M3470 3914 c0 -14 3 -14 15 -4 8 7 15 14 15 16 0 2 -7 4 -15 4 -8 0
-15 -7 -15 -16z"/>
<path d="M2943 3873 c-7 -2 -13 -8 -13 -13 0 -10 38 -1 46 11 6 10 -13 11 -33
2z"/>
<path d="M1593 3829 c-7 -7 -9 -25 -6 -40 6 -33 -12 -39 -47 -17 -16 11 -26 9
-56 -7 -56 -30 -124 -98 -124 -124 0 -18 4 -22 18 -16 9 5 37 11 62 14 37 5
45 10 50 31 4 19 16 28 50 38 25 7 52 17 60 23 19 12 49 26 75 34 18 6 17 9
-17 41 -41 37 -48 40 -65 23z"/>
<path d="M3123 3833 c-20 -7 -15 -23 6 -23 26 0 51 10 51 21 0 9 -36 11 -57 2z"/>
<path d="M3409 3805 c-65 -34 -156 -63 -267 -85 -118 -24 -236 -62 -319 -103
-61 -29 -102 -62 -91 -72 7 -7 119 28 271 87 169 64 315 98 430 98 87 0 87 0
87 26 0 17 -6 28 -20 31 -11 3 -20 14 -20 24 0 25 -15 23 -71 -6z"/>
<path d="M2510 3764 c-36 -20 -121 -76 -190 -124 -69 -48 -148 -99 -176 -113
-27 -14 -56 -33 -64 -42 -7 -9 -32 -26 -54 -37 -63 -31 -327 -231 -460 -347
-66 -58 -179 -162 -251 -232 -123 -120 -166 -171 -153 -185 3 -3 82 26 174 65
93 38 243 97 334 131 91 35 181 70 200 80 19 9 60 20 90 23 31 3 101 20 155
39 78 26 100 37 99 51 -1 11 5 17 21 17 12 0 30 9 39 19 17 19 18 19 62 0 48
-22 68 -18 59 11 -7 23 14 44 76 76 28 13 74 40 104 59 34 22 71 37 100 40 68
7 105 29 105 65 0 17 9 38 23 51 l22 22 -37 -6 c-20 -3 -85 -25 -145 -49 -97
-39 -109 -47 -117 -75 -9 -30 -11 -30 -85 -36 -64 -4 -97 -14 -204 -61 -123
-53 -167 -66 -167 -48 0 20 120 97 388 249 24 14 41 27 38 30 -8 9 -77 -17
-226 -87 -142 -66 -278 -116 -288 -105 -3 3 -7 11 -8 18 -1 7 -5 19 -8 28 -5
12 12 24 76 54 231 106 311 146 306 151 -5 4 -98 -24 -306 -92 -7 -2 -10 1 -7
6 3 5 51 33 107 61 59 31 103 60 105 70 3 10 21 23 40 30 22 7 42 24 55 45 11
19 25 34 31 34 7 0 23 3 37 7 23 6 24 5 11 -11 -18 -22 -7 -33 16 -15 69 53
183 154 183 161 0 18 -49 6 -110 -28z m-480 -563 c0 -5 -8 -12 -18 -16 -11 -3
-24 -16 -30 -29 -7 -17 -22 -25 -50 -30 -22 -3 -47 -9 -56 -12 -9 -3 -16 -2
-16 4 0 9 145 91 163 92 4 0 7 -4 7 -9z m-202 -123 c-6 -18 -28 -21 -28 -4 0
9 7 16 16 16 9 0 14 -5 12 -12z"/>
<path d="M2988 3763 c6 -2 18 -2 25 0 6 3 1 5 -13 5 -14 0 -19 -2 -12 -5z"/>
<path d="M1573 3666 c-19 -17 -25 -28 -18 -35 14 -14 75 23 75 44 0 22 -25 18
-57 -9z"/>
<path d="M3503 3662 c-8 -5 -9 -13 -3 -22 7 -12 12 -12 22 -2 14 14 -1 35 -19
24z"/>
<path d="M3180 3574 c-30 -8 -61 -21 -69 -29 -12 -12 -10 -15 12 -21 15 -3 39
-3 55 0 41 10 132 50 132 59 0 12 -70 7 -130 -9z"/>
<path d="M3462 3565 c-54 -25 -66 -54 -15 -34 38 14 83 42 83 51 0 12 -11 10
-68 -17z"/>
<path d="M1450 3541 c-12 -17 -29 -31 -39 -31 -10 0 -30 -13 -44 -30 -15 -16
-36 -30 -47 -30 -34 0 -50 -86 -20 -105 13 -8 40 6 40 20 0 7 27 46 60 85 34
40 65 81 71 92 17 32 3 31 -21 -1z"/>
<path d="M1300 3540 c-16 -29 -5 -52 22 -48 18 2 23 9 23 33 0 37 -28 46 -45
15z"/>
<path d="M2598 3544 c-48 -25 -30 -44 42 -44 43 0 60 15 39 35 -23 21 -52 25
-81 9z"/>
<path d="M3020 3508 c-26 -42 -26 -68 0 -68 24 0 40 28 40 69 0 40 -15 39 -40
-1z"/>
<path d="M1653 3504 c-8 -21 13 -42 28 -27 13 13 5 43 -11 43 -6 0 -13 -7 -17
-16z"/>
<path d="M3442 3504 c-22 -15 -30 -44 -12 -44 6 0 19 9 30 20 36 36 23 53 -18
24z"/>
<path d="M2305 3425 l-50 -25 38 6 c45 6 87 24 87 36 0 14 -23 9 -75 -17z"/>
<path d="M3211 3425 c-48 -16 -94 -23 -135 -22 -49 1 -72 -5 -116 -27 -57 -29
-100 -63 -100 -78 0 -5 16 -6 35 -2 28 5 35 3 35 -9 0 -8 -6 -17 -12 -20 -7
-2 -11 -7 -8 -10 3 -3 32 6 65 20 33 14 96 36 140 49 44 14 91 33 105 45 14
11 40 29 57 40 18 12 30 25 27 30 -7 12 -8 12 -93 -16z m-191 -75 c0 -12 -28
-25 -36 -17 -9 9 6 27 22 27 8 0 14 -5 14 -10z"/>
<path d="M3443 3428 c-34 -16 -28 -29 7 -17 17 6 30 15 30 20 0 11 -9 11 -37
-3z"/>
<path d="M3539 3387 c-7 -15 -34 -43 -61 -62 -45 -33 -59 -57 -39 -69 13 -9
99 61 116 95 11 20 13 35 6 47 -8 14 -11 13 -22 -11z"/>
<path d="M10902 3290 c0 -79 1 -82 11 -42 7 28 7 56 0 85 -10 39 -11 36 -11
-43z"/>
<path d="M1424 3295 c-10 -41 0 -48 29 -21 34 31 34 46 2 46 -18 0 -26 -7 -31
-25z"/>
<path d="M2795 3279 c-4 -6 -5 -13 -2 -16 8 -7 47 7 47 18 0 13 -37 11 -45 -2z"/>
<path d="M3042 3245 c-39 -19 -99 -53 -132 -75 -83 -56 -214 -118 -276 -129
-50 -10 -82 -23 -249 -101 -121 -57 -496 -180 -715 -235 -234 -59 -321 -87
-618 -206 -30 -12 -24 -29 18 -53 31 -18 99 -25 140 -15 10 3 14 -2 12 -13 -2
-12 4 -18 17 -18 11 0 22 -4 25 -8 3 -5 40 9 83 30 50 25 104 43 148 49 72 11
126 27 254 74 40 14 95 28 122 29 26 1 55 8 64 16 8 7 34 16 57 20 l41 8 -32
-30 c-18 -17 -31 -39 -31 -53 0 -13 -4 -27 -10 -30 -17 -10 -11 -35 8 -35 24
0 158 65 168 81 4 7 3 14 -4 17 -7 2 -12 14 -12 26 0 12 -5 27 -11 33 -20 20
-2 41 42 53 106 29 767 360 811 407 12 13 27 38 33 55 9 29 26 45 120 115 45
34 10 28 -73 -12z m-1731 -778 c-16 -16 -26 0 -10 19 9 11 15 12 17 4 2 -6 -1
-17 -7 -23z"/>
<path d="M1357 3228 c-4 -12 -16 -27 -28 -33 -23 -11 -46 -55 -28 -55 5 0 29
18 52 39 39 37 41 41 26 56 -15 15 -17 15 -22 -7z"/>
<path d="M3225 3219 c-12 -19 5 -23 22 -6 16 16 16 17 1 17 -9 0 -20 -5 -23
-11z"/>
<path d="M3107 3174 c-14 -14 -7 -25 13 -22 12 2 21 8 21 13 0 12 -24 18 -34
9z"/>
<path d="M11043 3144 c-8 -21 13 -42 28 -27 13 13 5 43 -11 43 -6 0 -13 -7
-17 -16z"/>
<path d="M3035 3130 c-8 -12 20 -24 35 -15 5 3 10 10 10 16 0 12 -37 12 -45
-1z"/>
<path d="M10984 3094 c-7 -18 -8 -37 -4 -45 14 -21 22 -5 18 37 l-3 39 -11
-31z"/>
<path d="M3129 3021 c-13 -10 -51 -32 -85 -49 -33 -17 -66 -37 -73 -46 -22
-27 30 -20 70 9 19 13 45 30 59 36 63 27 75 36 78 52 5 23 -19 22 -49 -2z"/>
<path d="M2875 2879 c-4 -6 -5 -13 -1 -16 8 -8 56 6 56 17 0 13 -47 13 -55 -1z"/>
<path d="M11150 2865 c-5 -14 -16 -98 -25 -187 -8 -90 -23 -206 -31 -258 -23
-132 -23 -134 3 -138 39 -6 59 29 88 153 25 107 27 130 23 259 -5 137 -16 196
-38 196 -6 0 -15 -11 -20 -25z"/>
<path d="M11470 2788 c0 -23 11 -48 21 -48 14 0 11 24 -6 46 -12 16 -14 17
-15 2z"/>
<path d="M2666 2775 c-11 -8 -16 -18 -13 -22 10 -9 59 9 65 25 5 17 -28 15
-52 -3z"/>
<path d="M11286 2768 c-2 -7 -7 -56 -10 -108 -11 -166 -37 -403 -52 -468 -25
-112 -16 -182 21 -152 27 22 78 199 79 275 1 42 9 89 20 118 18 45 18 58 8
145 -7 54 -17 119 -24 146 -13 48 -34 71 -42 44z"/>
<path d="M11416 2682 c-2 -4 -10 -104 -16 -222 -6 -118 -15 -233 -20 -255 -14
-60 -12 -96 7 -117 15 -16 15 -23 4 -54 -7 -20 -22 -72 -32 -117 -32 -134 -96
-328 -200 -602 -128 -341 -206 -525 -279 -655 -32 -58 -62 -119 -66 -134 l-7
-28 28 18 c36 24 218 227 253 282 15 24 59 76 97 115 159 162 476 573 517 670
29 68 30 74 18 127 -20 89 -40 150 -49 150 -11 0 -41 -73 -41 -99 0 -10 -10
-31 -22 -47 -17 -20 -23 -42 -23 -79 -1 -63 -34 -132 -88 -189 -32 -32 -41
-37 -44 -24 -2 9 5 35 17 57 11 23 36 98 54 168 41 154 63 221 82 250 14 23
17 95 5 148 -7 29 -7 29 -25 -23 -12 -37 -22 -52 -32 -48 -9 3 -15 -6 -19 -32
-10 -54 -25 -101 -36 -108 -6 -3 -18 1 -28 10 -10 9 -23 16 -29 16 -15 0 -16
17 -2 25 6 3 10 29 10 57 0 39 6 57 25 80 21 24 25 40 25 89 0 46 5 67 22 89
16 23 22 47 25 102 2 53 7 76 19 85 15 11 13 16 -16 53 -17 22 -37 40 -44 40
-7 0 -17 26 -24 60 -12 59 -46 150 -56 150 -3 0 -7 -3 -10 -8z m81 -304 c-2
-13 -4 -5 -4 17 -1 22 1 32 4 23 2 -10 2 -28 0 -40z m-37 -605 c0 -86 -67
-279 -141 -405 -30 -50 -44 -67 -52 -59 -8 8 -6 21 7 48 29 60 71 180 106 299
37 123 56 167 70 159 6 -4 10 -23 10 -42z"/>
<path d="M2173 2663 c-15 -3 -23 -12 -23 -24 0 -24 51 -27 74 -3 31 31 14 40
-51 27z"/>
<path d="M1757 2453 c-12 -11 -8 -23 8 -23 8 0 15 7 15 15 0 16 -12 20 -23 8z"/>
<path d="M2894 2370 c-33 -16 -69 -39 -79 -50 -18 -19 -18 -20 1 -20 26 0 155
63 173 83 12 15 11 17 -10 17 -13 0 -51 -14 -85 -30z"/>
<path d="M855 2377 c-10 -8 -26 -29 -35 -48 -9 -19 -22 -33 -28 -31 -7 1 -18
3 -24 5 -21 4 -23 -115 -3 -153 18 -34 28 -32 50 11 12 22 23 29 45 29 39 0
42 -9 20 -57 l-18 -41 -69 -4 c-68 -4 -68 -4 -105 34 -21 21 -42 38 -48 38
-13 0 -13 -23 1 -37 5 -5 12 -37 15 -69 9 -110 13 -124 35 -124 39 0 144 56
174 93 73 90 100 119 126 134 37 22 36 29 -1 36 -31 7 -54 35 -65 78 -6 25 -5
26 45 31 54 5 104 39 85 57 -34 30 -166 42 -200 18z"/>
<path d="M1244 2335 c-4 -8 -1 -22 6 -30 7 -9 11 -16 9 -18 -2 -1 -29 -15 -60
-30 -69 -34 -173 -117 -177 -140 -3 -17 -1 -17 35 -2 21 9 60 29 86 45 27 17
59 30 71 30 27 0 139 54 157 76 12 14 9 14 -26 -1 -22 -9 -44 -20 -49 -26 -6
-5 -14 -9 -18 -9 -15 0 -8 20 12 37 26 22 25 35 -3 61 -28 26 -36 27 -43 7z"/>
<path d="M3543 2330 c-30 -12 -29 -18 3 -30 14 -6 28 -19 31 -30 7 -28 27 -25
41 5 13 28 6 55 -13 55 -7 0 -19 2 -27 4 -7 3 -23 1 -35 -4z"/>
<path d="M11560 2195 c0 -8 5 -15 10 -15 6 0 10 7 10 15 0 8 -4 15 -10 15 -5
0 -10 -7 -10 -15z"/>
<path d="M3337 2163 c-16 -15 -5 -24 25 -21 41 4 50 28 11 28 -17 0 -33 -3
-36 -7z"/>
<path d="M2454 2131 c-36 -22 -51 -41 -33 -41 12 0 89 49 89 56 0 10 -28 2
-56 -15z"/>
<path d="M3554 2135 c-16 -12 -16 -14 -3 -15 9 0 22 7 29 15 16 19 0 19 -26 0z"/>
<path d="M3134 2121 c-33 -9 -71 -25 -84 -34 l-24 -17 31 0 c33 0 176 42 203
60 25 16 -58 11 -126 -9z"/>
<path d="M3455 2106 c-18 -13 -18 -14 3 -20 24 -8 28 -26 10 -44 -9 -9 -8 -12
8 -12 28 0 116 44 138 69 23 25 21 25 -34 6 -23 -8 -49 -15 -56 -15 -8 0 -14
7 -14 15 0 19 -30 19 -55 1z"/>
<path d="M3265 2083 c-44 -9 -105 -35 -105 -45 0 -5 8 -7 18 -4 9 3 45 10 79
17 35 6 71 18 80 25 16 12 14 13 -17 13 -19 -1 -44 -3 -55 -6z"/>
<path d="M2157 2054 c-34 -18 -29 -29 8 -20 14 4 25 13 25 21 0 18 2 18 -33
-1z"/>
<path d="M3005 1994 c-33 -14 -80 -32 -105 -41 -25 -9 -49 -19 -54 -24 -51
-46 186 25 249 75 20 15 20 15 -5 15 -14 0 -52 -11 -85 -25z"/>
<path d="M3207 2003 c-24 -23 9 -31 39 -8 18 14 18 14 -7 15 -14 0 -29 -3 -32
-7z"/>
<path d="M1741 1901 c-27 -7 -41 -31 -19 -31 17 0 55 26 48 33 -3 2 -16 1 -29
-2z"/>
<path d="M2929 1900 c-21 -14 -2 -24 23 -13 17 7 19 11 6 15 -8 4 -21 2 -29
-2z"/>
<path d="M3080 1880 c-12 -8 -10 -10 8 -10 13 0 20 4 17 10 -7 12 -6 12 -25 0z"/>
<path d="M3396 1834 c-9 -24 2 -35 32 -28 56 12 58 15 32 29 -33 19 -57 18
-64 -1z"/>
<path d="M1502 1774 c-35 -20 -61 -38 -58 -41 2 -3 29 0 60 7 56 11 111 44
101 61 -11 17 -39 9 -103 -27z"/>
<path d="M2518 1719 c-10 -5 -18 -21 -18 -34 0 -16 -6 -25 -15 -25 -8 0 -15 7
-15 15 0 21 -17 19 -75 -9 l-50 -23 34 -8 34 -7 -33 -16 c-31 -15 -48 -37 -37
-48 8 -9 90 30 154 74 58 39 90 69 82 76 -12 11 -46 14 -61 5z"/>
<path d="M9885 1610 c-38 -38 -65 -70 -59 -70 5 0 41 32 79 70 38 39 65 70 59
70 -5 0 -41 -31 -79 -70z"/>
<path d="M572 1638 c2 -15 11 -24 26 -26 27 -4 28 9 4 31 -25 23 -34 21 -30
-5z"/>
<path d="M10084 1585 c-9 -22 1 -29 15 -11 8 10 9 16 1 21 -5 3 -13 -1 -16
-10z"/>
<path d="M10175 1549 c-4 -6 -5 -13 -2 -16 7 -7 27 6 27 18 0 12 -17 12 -25
-2z"/>
<path d="M577 1504 c-9 -9 -9 -90 -1 -122 4 -13 12 -21 18 -19 20 7 39 53 33
79 -8 32 -40 72 -50 62z"/>
<path d="M11657 1468 c-10 -15 -17 -37 -15 -50 l3 -23 18 27 c10 15 17 37 15
50 l-3 23 -18 -27z"/>
<path d="M4088 1392 c-29 -30 -68 -92 -68 -106 0 -15 59 45 66 68 4 11 16 27
27 36 12 10 16 19 10 23 -5 3 -21 -6 -35 -21z"/>
<path d="M12172 1383 c-6 -10 -19 -54 -30 -98 -47 -190 -199 -528 -291 -648
-59 -76 -63 -92 -23 -82 85 21 222 129 222 176 0 11 15 48 34 82 19 34 39 79
45 99 7 20 19 42 27 48 7 7 14 20 14 30 0 24 40 69 46 53 3 -7 17 -13 31 -13
20 0 23 4 18 20 -7 21 15 37 34 26 13 -8 -14 -87 -40 -114 -20 -22 -39 -112
-23 -112 5 0 24 17 42 37 l33 38 -4 -42 c-8 -67 -45 -131 -125 -214 -85 -89
-143 -136 -264 -212 -113 -71 -365 -178 -509 -217 -136 -36 -167 -48 -194 -70
-11 -9 -49 -24 -85 -34 -65 -17 -297 -111 -314 -127 -6 -5 327 -9 765 -9 l774
0 81 128 c109 170 188 311 180 319 -3 4 -23 -10 -44 -30 -42 -42 -57 -46 -49
-17 6 22 -3 32 -19 22 -6 -4 -30 -33 -53 -65 -38 -52 -46 -58 -74 -55 -24 2
-33 8 -35 26 -2 12 -6 22 -9 22 -8 0 -63 -40 -128 -94 -76 -62 -167 -106 -222
-106 -77 0 -74 4 107 148 88 70 200 178 200 192 0 6 -9 10 -19 10 -11 0 -23 5
-27 11 -3 6 35 95 85 197 105 216 113 251 87 380 -22 109 -54 190 -84 210 -13
9 -48 36 -78 60 -60 47 -69 50 -82 25z m328 -1052 c0 -12 -20 -25 -27 -18 -7
7 6 27 18 27 5 0 9 -4 9 -9z"/>
<path d="M10070 1335 c-6 -8 -32 -24 -57 -36 -61 -29 -110 -104 -123 -187 -15
-93 -25 -112 -57 -112 -21 0 -24 -3 -15 -12 20 -20 14 -34 -35 -95 -69 -87
-67 -83 -55 -83 6 0 46 30 89 67 43 36 93 75 111 86 17 10 32 24 32 30 0 7 12
37 26 67 14 30 26 71 26 90 0 23 12 55 37 95 21 33 40 68 44 77 8 23 -7 32
-23 13z"/>
<path d="M3865 1330 c-7 -12 2 -30 16 -30 5 0 9 9 9 20 0 21 -15 27 -25 10z"/>
<path d="M3497 1283 c-12 -11 -8 -23 8 -23 8 0 15 7 15 15 0 16 -12 20 -23 8z"/>
<path d="M11527 1251 c-9 -16 -17 -33 -17 -38 1 -9 26 21 41 50 17 29 -6 19
-24 -12z"/>
<path d="M3370 1220 c0 -5 9 -10 21 -10 11 0 17 5 14 10 -3 6 -13 10 -21 10
-8 0 -14 -4 -14 -10z"/>
<path d="M3452 1157 c-45 -46 -50 -57 -27 -57 20 0 95 68 95 86 0 25 -25 15
-68 -29z"/>
<path d="M3365 1159 c-4 -6 -5 -12 -3 -14 7 -7 48 7 48 16 0 13 -37 11 -45 -2z"/>
<path d="M10334 1065 c-9 -22 1 -29 15 -11 8 10 9 16 1 21 -5 3 -13 -1 -16
-10z"/>
<path d="M1910 1058 c-20 -9 -22 -12 -8 -15 9 -2 29 3 45 11 23 12 24 15 8 15
-11 0 -31 -5 -45 -11z"/>
<path d="M12557 1054 c-11 -12 13 -44 33 -44 29 0 33 17 8 34 -25 18 -32 19
-41 10z"/>
<path d="M1668 1033 c6 -2 18 -2 25 0 6 3 1 5 -13 5 -14 0 -19 -2 -12 -5z"/>
<path d="M3445 1029 c-10 -15 3 -25 16 -12 7 7 7 13 1 17 -6 3 -14 1 -17 -5z"/>
<path d="M2958 1009 c-27 -16 -23 -57 6 -65 45 -11 61 -2 61 36 0 30 -4 35
-25 37 -14 2 -33 -2 -42 -8z"/>
<path d="M12165 920 c-9 -28 11 -52 25 -30 6 8 9 21 7 29 -4 23 -25 24 -32 1z"/>
<path d="M10216 896 c-4 -19 -13 -39 -21 -46 -17 -14 -20 -40 -6 -40 19 0 61
62 61 91 0 41 -26 38 -34 -5z"/>
<path d="M3394 906 c-10 -8 -16 -17 -13 -20 10 -10 39 5 39 20 0 17 -2 17 -26
0z"/>
<path d="M2645 886 c-9 -7 -16 -21 -14 -32 5 -25 64 -33 73 -9 12 33 -30 62
-59 41z"/>
<path d="M2167 784 c-8 -8 1 -24 14 -24 5 0 9 7 9 15 0 15 -12 20 -23 9z"/>
<path d="M12514 696 c-12 -48 0 -57 23 -16 20 38 21 40 2 40 -11 0 -21 -9 -25
-24z"/>
<path d="M12600 586 c0 -9 5 -16 10 -16 6 0 10 4 10 9 0 6 -4 13 -10 16 -5 3
-10 -1 -10 -9z"/>
<path d="M3524 564 c-27 -31 -22 -61 42 -222 44 -115 55 -167 32 -160 -7 3
-29 33 -49 68 -42 75 -64 90 -57 39 8 -53 49 -211 62 -239 14 -31 63 -49 136
-49 88 -1 89 1 52 121 -17 57 -37 126 -43 153 -14 58 -30 93 -69 147 -16 22
-38 68 -50 104 -12 35 -25 64 -28 63 -4 0 -17 -11 -28 -25z"/>
<path d="M12431 538 c-11 -18 -17 -36 -13 -40 13 -13 107 6 109 22 4 23 -9 37
-44 44 -29 7 -34 4 -52 -26z"/>
<path d="M3975 544 c-13 -10 -31 -13 -52 -9 -18 3 -33 2 -33 -2 0 -18 85 -276
121 -368 42 -106 57 -125 98 -125 14 0 40 -8 56 -17 24 -13 70 -17 240 -20
l210 -5 -40 33 c-105 86 -238 227 -268 283 -24 45 -39 62 -60 67 -16 4 -52 28
-80 52 -70 60 -117 87 -149 87 -16 0 -28 5 -28 10 0 6 5 10 10 10 6 0 10 5 10
10 0 14 -12 12 -35 -6z"/>
<path d="M12557 523 c-4 -3 -7 -15 -7 -25 0 -26 24 -17 28 10 3 21 -8 29 -21
15z"/>
<path d="M12432 418 c-10 -24 -26 -49 -35 -57 -10 -7 -17 -18 -17 -24 0 -6 14
2 31 19 45 43 74 104 49 104 -5 0 -18 -19 -28 -42z"/>
<path d="M3445 225 c13 -158 38 -245 65 -219 13 13 -14 138 -50 234 l-20 55 5
-70z"/>
<path d="M12548 218 c-14 -29 -47 -82 -74 -117 -27 -35 -55 -72 -63 -83 -13
-17 -9 -18 77 -18 l91 0 7 58 c11 85 10 190 -3 203 -8 8 -18 -4 -35 -43z"/>
<path d="M2136 235 c4 -8 10 -15 15 -15 5 0 9 7 9 15 0 8 -7 15 -15 15 -9 0
-12 -6 -9 -15z"/>
<path d="M2204 186 c4 -15 2 -26 -4 -26 -16 0 -11 -37 6 -44 28 -11 44 -6 44
12 0 11 9 27 20 37 17 15 24 16 46 7 13 -7 32 -12 42 -12 14 0 13 3 -5 21 -15
16 -38 22 -88 27 l-68 5 7 -27z"/>
<path d="M9045 133 c4 -10 10 -44 13 -75 l4 -58 144 0 c79 0 144 4 144 9 0 9
-282 141 -302 141 -6 0 -7 -7 -3 -17z"/>
<path d="M8913 84 c-9 -25 64 -93 87 -79 13 8 -14 60 -42 79 -28 20 -37 20
-45 0z"/>
<path d="M2309 59 c13 -11 26 -17 29 -14 8 8 -20 35 -37 35 -12 -1 -11 -5 8
-21z"/>
<path d="M1972 58 c3 -7 13 -15 22 -16 12 -3 17 1 14 10 -3 7 -13 15 -22 16
-12 3 -17 -1 -14 -10z"/>
<path d="M2426 40 c10 -18 26 -36 33 -38 11 -4 9 4 -5 28 -10 18 -26 36 -33
38 -11 4 -9 -4 5 -28z"/>
<path d="M1860 40 c0 -12 54 -40 77 -40 24 0 7 15 -39 34 -21 8 -38 11 -38 6z"/>
<path d="M8862 19 c2 -7 10 -15 17 -17 8 -3 12 1 9 9 -2 7 -10 15 -17 17 -8 3
-12 -1 -9 -9z"/>
</g>
</svg>
