<?xml version="1.0" standalone="no"?>
<!DOCTYPE svg PUBLIC "-//W3C//DTD SVG 20010904//EN"
 "http://www.w3.org/TR/2001/REC-SVG-20010904/DTD/svg10.dtd">
<svg version="1.0" xmlns="http://www.w3.org/2000/svg"
 width="1280.000000pt" height="1002.000000pt" viewBox="0 0 1280.000000 1002.000000"
 preserveAspectRatio="xMidYMid meet">
<metadata>
Created by potrace 1.15, written by Peter Selinger 2001-2017
</metadata>
<g transform="translate(0.000000,1002.000000) scale(0.100000,-0.100000)"
fill="#000000" stroke="none">
<path d="M6195 10013 c-371 -48 -730 -246 -1076 -594 -382 -384 -705 -910
-939 -1529 -47 -125 -48 -125 -96 -150 -40 -21 -63 -25 -129 -25 -71 0 -88 4
-147 33 -103 51 -145 105 -282 363 -269 509 -497 845 -751 1108 -291 300 -545
428 -780 391 -240 -37 -447 -265 -560 -618 -61 -189 -188 -794 -685 -3257
-405 -2007 -616 -2950 -726 -3242 -13 -35 -19 -63 -15 -63 4 0 53 11 107 24
291 72 630 116 889 116 394 0 647 -92 735 -267 l23 -45 -27 -241 c-20 -179
-23 -243 -15 -253 39 -47 272 -45 712 6 255 30 389 24 587 -26 134 -34 206
-72 299 -160 161 -151 277 -346 370 -624 41 -119 60 -305 61 -571 0 -219 9
-260 72 -314 65 -55 123 -70 268 -70 69 1 152 7 185 14 119 25 302 73 430 111
363 110 798 191 1235 231 173 16 689 16 845 0 346 -35 469 -59 657 -127 410
-150 653 -210 817 -202 141 6 270 93 332 223 39 81 44 115 29 196 l-13 68 44
77 c52 91 160 210 238 263 282 191 746 364 1216 453 168 32 443 32 667 -1
l157 -23 81 69 c95 78 165 167 181 226 17 63 5 179 -30 301 -38 133 -39 192
-7 317 59 229 168 392 442 659 173 169 307 282 801 678 l393 314 -30 36 c-154
192 -737 1868 -1481 4257 -261 838 -254 815 -298 903 -110 219 -342 439 -577
549 -131 61 -285 58 -423 -7 -192 -91 -397 -296 -599 -596 -175 -262 -365
-641 -534 -1063 -66 -166 -111 -251 -167 -313 -125 -140 -260 -97 -425 135
-39 55 -59 100 -106 240 -409 1220 -966 1902 -1643 2012 -84 14 -238 18 -312
8z"/>
</g>
</svg>
