<?xml version="1.0" standalone="no"?>
<!DOCTYPE svg PUBLIC "-//W3C//DTD SVG 20010904//EN"
 "http://www.w3.org/TR/2001/REC-SVG-20010904/DTD/svg10.dtd">
<svg version="1.0" xmlns="http://www.w3.org/2000/svg"
 width="734.000000pt" height="1280.000000pt" viewBox="0 0 734.000000 1280.000000"
 preserveAspectRatio="xMidYMid meet">
<metadata>
Created by potrace 1.15, written by Peter Selinger 2001-2017
</metadata>
<g transform="translate(0.000000,1280.000000) scale(0.100000,-0.100000)"
fill="#000000" stroke="none">
<path d="M810 12794 c-316 -37 -456 -84 -558 -186 -132 -130 -228 -382 -248
-645 -6 -76 -4 -94 12 -124 36 -68 219 -329 230 -329 7 0 38 -21 70 -46 56
-43 62 -45 105 -39 44 6 47 5 99 -42 40 -36 63 -68 92 -130 21 -45 41 -96 44
-113 4 -17 -4 -103 -17 -191 l-23 -159 -71 -47 c-153 -102 -216 -184 -268
-348 -38 -122 -51 -224 -51 -405 1 -242 25 -371 110 -590 111 -287 205 -467
495 -940 l254 -415 0 -175 0 -175 -42 -80 c-49 -92 -537 -1435 -526 -1445 5
-4 121 -37 258 -74 138 -37 274 -74 303 -83 l52 -14 0 -121 c0 -93 -7 -157
-30 -278 l-30 -156 34 -75 34 -75 7 -314 7 -315 -41 -70 c-38 -64 -41 -75 -41
-142 0 -40 2 -73 5 -73 3 0 22 7 42 15 45 19 43 19 43 -9 0 -14 -16 -52 -36
-85 -40 -68 -41 -47 8 -251 28 -115 30 -145 36 -375 l7 -250 30 -3 c73 -7 51
-16 -60 -26 l-120 -11 123 -39 123 -40 -6 -35 c-3 -20 -34 -268 -70 -551 -36
-283 -86 -675 -111 -870 -24 -195 -56 -443 -69 -550 -14 -107 -27 -210 -31
-229 l-5 -34 50 7 c28 4 51 3 51 -1 0 -4 -11 -102 -25 -218 -16 -137 -35 -248
-55 -320 -27 -98 -29 -115 -19 -153 6 -23 9 -71 7 -106 l-6 -64 37 -6 c20 -3
54 -6 76 -6 22 0 55 -9 73 -20 31 -19 35 -19 100 -4 74 18 129 17 602 -12 218
-13 285 -21 460 -55 113 -22 239 -49 282 -60 97 -24 127 -24 205 2 73 25 76
34 42 123 -37 101 -211 242 -572 464 -131 81 -206 136 -310 227 l-136 120 -1
92 0 91 28 6 c108 21 145 18 282 -23 74 -21 136 -38 137 -37 1 1 -245 192
-324 251 -12 9 14 76 138 365 172 402 239 588 239 665 0 74 48 197 125 319
l65 103 0 77 c0 105 18 144 86 191 l55 38 -2 111 c-2 93 1 120 20 167 21 55
21 57 6 232 -14 167 -16 179 -46 226 l-31 51 40 73 c30 57 54 130 103 315 35
133 66 242 69 242 3 0 189 -164 415 -365 l409 -365 64 -183 c50 -144 65 -201
71 -272 7 -76 25 -139 112 -395 88 -263 107 -309 135 -335 27 -25 44 -66 109
-258 42 -126 74 -234 72 -241 -9 -22 43 -370 56 -378 6 -4 28 -10 48 -13 36
-6 37 -8 72 -107 34 -96 35 -103 22 -136 -20 -46 -19 -52 9 -52 13 0 28 -6 33
-12 6 -7 36 -91 67 -185 32 -95 60 -173 62 -173 2 0 47 18 100 40 53 22 98 40
99 40 7 0 159 -266 185 -324 16 -35 62 -115 103 -177 41 -63 113 -181 162
-264 48 -82 89 -152 91 -154 2 -2 22 11 46 28 23 17 61 36 83 42 51 14 97 49
165 124 30 33 171 150 315 259 303 232 666 520 746 594 70 64 89 104 64 132
-10 11 -24 20 -32 20 -7 0 -18 11 -23 24 -15 40 -54 60 -103 52 -23 -4 -78 -6
-122 -6 -102 1 -218 -21 -370 -70 -94 -31 -246 -70 -270 -70 -7 0 -125 148
-125 157 0 4 54 30 121 57 96 39 119 52 114 65 -3 9 -231 533 -507 1165 -425
976 -510 1163 -565 1247 -35 55 -69 116 -75 137 -5 20 -20 48 -32 62 -13 14
-58 92 -100 173 -65 125 -77 155 -74 189 l2 41 -83 47 -84 47 -50 99 c-28 55
-102 169 -164 254 l-113 155 0 69 c0 69 -1 72 -60 161 -47 72 -98 126 -250
270 l-190 179 47 51 c26 27 79 82 117 121 l68 72 -125 146 c-220 255 -509 700
-629 969 -144 321 -167 492 -149 1125 6 224 11 437 11 473 l0 66 213 -43 c116
-24 424 -86 682 -138 259 -53 479 -98 491 -101 16 -4 40 19 119 115 55 66 102
120 105 120 3 0 18 -95 34 -211 l29 -212 56 59 c31 32 91 96 134 142 l77 84 0
-82 0 -83 -148 -154 c-250 -262 -258 -253 85 -92 163 77 297 138 299 136 1 -1
-83 -110 -188 -242 l-190 -240 248 248 249 247 98 250 98 250 208 0 c124 0
221 -4 239 -11 17 -6 41 -26 52 -44 11 -18 35 -38 52 -44 45 -16 143 -14 185
4 l36 15 51 -47 c28 -27 65 -60 82 -74 23 -18 32 -36 37 -67 6 -48 21 -72 46
-72 29 0 41 22 41 78 0 44 -6 65 -35 112 -19 32 -56 74 -81 95 l-45 37 25 27
c13 14 26 40 28 56 3 30 3 30 98 -62 79 -76 102 -105 135 -172 21 -45 43 -81
48 -81 15 0 36 33 37 57 1 67 -85 180 -217 285 -35 27 -63 56 -63 64 0 19 3
19 62 -20 79 -51 182 -162 202 -218 10 -26 26 -58 36 -70 15 -19 22 -21 46
-13 61 22 38 77 -99 241 -44 52 -88 92 -131 119 -59 36 -79 55 -58 55 4 0 46
-24 95 -54 74 -45 95 -64 140 -128 28 -41 65 -100 81 -131 30 -61 51 -71 79
-39 32 35 24 56 -66 179 -51 70 -77 93 -177 162 -130 89 -291 161 -361 161
-22 0 -120 -7 -217 -15 -97 -8 -277 -19 -399 -25 l-222 -11 -493 91 c-271 50
-648 120 -838 155 -190 35 -436 80 -548 100 -196 36 -207 39 -290 86 -57 32
-76 47 -57 43 17 -3 152 16 315 45 l285 50 390 -29 c379 -29 394 -31 540 -70
83 -22 160 -40 172 -40 12 0 59 16 105 36 45 20 92 36 103 36 11 0 139 -45
285 -101 l265 -100 -50 47 c-27 26 -97 91 -154 145 -57 53 -102 97 -99 97 3 0
167 -50 363 -110 197 -61 359 -109 361 -107 2 2 -80 59 -181 127 -102 68 -185
125 -185 128 0 2 16 -6 36 -19 65 -40 489 -286 491 -285 1 1 -31 121 -72 266
l-74 265 66 143 c37 78 71 142 77 142 6 0 57 -14 115 -32 l104 -32 151 26 151
26 100 -53 c84 -45 105 -62 134 -104 43 -65 75 -94 98 -89 41 8 19 90 -41 152
-17 17 -64 61 -104 97 -72 65 -72 66 -59 97 l13 31 129 -63 c133 -64 147 -75
213 -170 18 -26 38 -46 45 -43 7 2 13 24 15 50 6 97 -49 152 -289 287 l-121
68 31 21 30 22 92 -28 92 -28 33 -72 c35 -76 78 -116 119 -111 17 3 20 10 18
50 -1 37 2 45 13 41 23 -9 43 16 49 61 9 61 -9 115 -60 181 -24 32 -45 61 -47
66 -2 5 -77 32 -167 59 l-163 50 -92 -21 c-140 -32 -211 -54 -394 -123 -93
-35 -202 -73 -242 -85 -71 -20 -72 -20 -77 -1 -6 23 -21 24 -143 10 -139 -16
-515 -39 -835 -50 -686 -24 -1024 -51 -1305 -105 -41 -8 -143 -19 -227 -25
l-152 -11 -628 120 c-345 65 -730 138 -855 162 l-226 43 -57 79 c-31 44 -54
85 -52 92 8 18 70 44 170 71 107 29 147 52 172 97 35 66 -4 185 -72 221 -25
12 -35 11 -105 -12 -75 -24 -79 -25 -98 -7 -56 51 23 192 117 211 l31 6 -19
42 c-30 66 -25 99 21 143 75 71 59 126 -66 232 -51 43 -65 62 -69 90 -18 116
-90 275 -149 330 -28 26 -34 43 -13 40 26 -3 47 1 47 11 0 14 -133 105 -197
136 -81 38 -236 65 -398 69 -77 2 -156 1 -175 -1z m6277 -1945 c123 -39 150
-62 163 -144 5 -32 9 -60 7 -61 -1 -1 -33 35 -72 81 -71 84 -86 95 -140 95
-35 0 -75 24 -75 46 0 19 6 18 117 -17z"/>
</g>
</svg>
